<svg width="653" height="42" viewBox="0 0 653 42" fill="none" xmlns="http://www.w3.org/2000/svg">
<g clip-path="url(#clip0)">
<path d="M0 27.5402H2.28366V20.6524H6.40898C10.8013 20.6524 12.7811 17.982 12.7811 14.6486C12.7811 11.3152 10.8013 8.68164 6.37214 8.68164H0V27.5402ZM2.28366 18.6266V10.7075H6.29848C9.36484 10.7075 10.5343 12.3834 10.5343 14.6486C10.5343 16.9139 9.36484 18.6266 6.33531 18.6266H2.28366Z" fill="#183D5D"/>
<path d="M16.1652 27.5402H18.3383V18.5898C18.3383 16.6744 19.8485 15.2748 21.9111 15.2748C22.4913 15.2748 23.0898 15.3853 23.2371 15.4221V13.2121C22.9885 13.1937 22.4176 13.1753 22.0953 13.1753C20.401 13.1753 18.9277 14.133 18.412 15.5326H18.2647V13.3963H16.1652V27.5402Z" fill="#183D5D"/>
<path d="M31.3128 27.8349C34.1858 27.8349 36.2853 26.3984 36.9483 24.2621L34.8488 23.6727C34.2963 25.1461 33.0164 25.8827 31.3128 25.8827C28.7621 25.8827 27.0033 24.2345 26.902 21.2049H37.1693V20.2841C37.1693 15.017 34.0385 13.2121 31.0918 13.2121C27.2612 13.2121 24.7197 16.2324 24.7197 20.5788C24.7197 24.9251 27.2243 27.8349 31.3128 27.8349ZM26.902 19.3264C27.0494 17.1256 28.6056 15.1643 31.0918 15.1643C33.4491 15.1643 34.9593 16.9323 34.9593 19.3264H26.902Z" fill="#183D5D"/>
<path d="M50.4937 16.5639C49.8123 14.5565 48.2837 13.2121 45.4844 13.2121C42.5009 13.2121 40.2909 14.9064 40.2909 17.3006C40.2909 19.2528 41.4512 20.5603 44.0479 21.1681L46.4052 21.7206C47.8325 22.0521 48.5047 22.7335 48.5047 23.7096C48.5047 24.9251 47.2155 25.9196 45.1897 25.9196C43.4125 25.9196 42.2983 25.1553 41.9116 23.6359L39.8489 24.1516C40.3554 26.5549 42.3351 27.8349 45.2266 27.8349C48.5139 27.8349 50.7515 26.0393 50.7515 23.5991C50.7515 21.6285 49.5176 20.3854 46.9945 19.7684L44.8951 19.2528C43.2191 18.8384 42.4641 18.2767 42.4641 17.1901C42.4641 15.9746 43.7532 15.0906 45.4844 15.0906C47.3813 15.0906 48.164 16.1404 48.5415 17.1164L50.4937 16.5639Z" fill="#183D5D"/>
<path d="M59.9529 27.8349C62.8259 27.8349 64.9254 26.3984 65.5884 24.2621L63.4889 23.6727C62.9364 25.1461 61.6565 25.8827 59.9529 25.8827C57.4022 25.8827 55.6434 24.2345 55.5422 21.2049H65.8094V20.2841C65.8094 15.017 62.6786 13.2121 59.7319 13.2121C55.9013 13.2121 53.3598 16.2324 53.3598 20.5788C53.3598 24.9251 55.8644 27.8349 59.9529 27.8349ZM55.5422 19.3264C55.6895 17.1256 57.2457 15.1643 59.7319 15.1643C62.0893 15.1643 63.5994 16.9323 63.5994 19.3264H55.5422Z" fill="#183D5D"/>
<path d="M71.2883 19.0318C71.2883 16.5639 72.8169 15.1643 74.898 15.1643C76.9146 15.1643 78.1393 16.4811 78.1393 18.7003V27.5402H80.3125V18.5529C80.3125 14.9433 78.3879 13.2121 75.5242 13.2121C73.3878 13.2121 72.0618 14.1698 71.3988 15.6063H71.2147V13.3963H69.1152V27.5402H71.2883V19.0318Z" fill="#183D5D"/>
<path d="M90.4347 13.3963H87.4144V10.0076H85.2412V13.3963H83.1049V15.2379H85.2412V24.0779C85.2412 26.5457 87.2302 27.7244 89.0719 27.7244C89.8822 27.7244 90.3979 27.5771 90.6925 27.4666L90.2505 25.5144C90.0664 25.5512 89.7717 25.6249 89.2929 25.6249C88.3352 25.6249 87.4144 25.3302 87.4144 23.4886V15.2379H90.4347V13.3963Z" fill="#183D5D"/>
<path d="M99.4819 27.8349C102.355 27.8349 104.454 26.3984 105.117 24.2621L103.018 23.6727C102.465 25.1461 101.185 25.8827 99.4819 25.8827C96.9312 25.8827 95.1724 24.2345 95.0711 21.2049H105.338V20.2841C105.338 15.017 102.208 13.2121 99.2609 13.2121C95.4302 13.2121 92.8887 16.2324 92.8887 20.5788C92.8887 24.9251 95.3934 27.8349 99.4819 27.8349ZM95.0711 19.3264C95.2184 17.1256 96.7746 15.1643 99.2609 15.1643C101.618 15.1643 103.128 16.9323 103.128 19.3264H95.0711Z" fill="#183D5D"/>
<path d="M113.985 27.8349C116.711 27.8349 117.631 26.1406 118.11 25.3671H118.368V27.5402H120.468V8.68164H118.294V15.6431H118.11C117.631 14.9064 116.784 13.2121 114.022 13.2121C110.449 13.2121 107.981 16.0483 107.981 20.5051C107.981 24.9987 110.449 27.8349 113.985 27.8349ZM114.28 25.8827C111.554 25.8827 110.154 23.4886 110.154 20.4683C110.154 17.4848 111.517 15.1643 114.28 15.1643C116.932 15.1643 118.331 17.3006 118.331 20.4683C118.331 23.6727 116.895 25.8827 114.28 25.8827Z" fill="#183D5D"/>
<path d="M132.337 27.5402H134.437V25.3671H134.694C135.173 26.1406 136.094 27.8349 138.82 27.8349C142.356 27.8349 144.824 24.9987 144.824 20.5051C144.824 16.0483 142.356 13.2121 138.783 13.2121C136.02 13.2121 135.173 14.9064 134.694 15.6431H134.51V8.68164H132.337V27.5402ZM134.473 20.4683C134.473 17.3006 135.873 15.1643 138.525 15.1643C141.288 15.1643 142.65 17.4848 142.65 20.4683C142.65 23.4886 141.251 25.8827 138.525 25.8827C135.91 25.8827 134.473 23.6727 134.473 20.4683Z" fill="#183D5D"/>
<path d="M149.041 32.8074C151.002 32.8074 152.393 31.7668 153.203 29.6029L159.225 13.4331L156.85 13.3963L152.945 24.6672H152.798L148.894 13.3963H146.536L151.767 27.6139L151.361 28.7189C150.588 30.8368 149.593 31.0394 148.01 30.6342L147.457 32.5496C147.678 32.66 148.304 32.8074 149.041 32.8074Z" fill="#183D5D"/>
<path fill-rule="evenodd" clip-rule="evenodd" d="M203.961 41.3103V33.3453C212.484 33.3453 219.074 24.9792 215.82 16.0931C214.615 12.8017 211.968 10.1766 208.649 8.9819C199.69 5.75807 191.258 12.2917 191.256 20.7429C191.256 20.7429 191.255 20.7449 191.254 20.7449H183.225C183.225 7.27843 196.342 -3.20682 210.57 1.1983C216.788 3.12353 221.729 8.02365 223.67 14.19C228.111 28.3011 217.539 41.3103 203.961 41.3103Z" fill="#183D5D"/>
<path fill-rule="evenodd" clip-rule="evenodd" d="M202.717 33.602H194.71V25.6633C194.71 25.6633 194.711 25.6618 194.712 25.6618H202.716C202.717 25.6618 202.717 25.6626 202.717 25.6626V33.602H202.717ZM194.709 39.7038H188.559L188.557 39.702V33.602H194.71V39.702L194.709 39.7038ZM188.561 33.602H183.406C183.404 33.602 183.402 33.6003 183.402 33.6003V28.4895C183.402 28.4895 183.404 28.4859 183.406 28.4859H188.558C188.56 28.4859 188.561 28.4875 188.561 28.4875V33.602V33.602ZM243.882 13.8432H246.241C248.866 13.8432 251.027 14.3553 252.665 15.3664C254.484 16.4541 255.406 18.5237 255.406 21.5169C255.406 24.6005 254.482 26.7632 252.659 27.9465H252.657C251.088 28.976 248.94 29.4982 246.274 29.4982H243.882V13.8432ZM255.791 12.3072C253.416 10.6734 250.461 9.84506 247.008 9.84506H239.492V33.4964H247.008C250.453 33.4964 253.409 32.6219 255.794 30.8988C257.091 29.9858 258.111 28.7093 258.824 27.1062C259.534 25.5118 259.894 23.6314 259.894 21.517C259.894 19.4276 259.534 17.5713 258.824 15.999C258.11 14.4196 257.09 13.1778 255.791 12.3074V12.3072ZM265.127 9.55392C264.404 9.55392 263.781 9.80815 263.28 10.3056C262.773 10.7849 262.516 11.3925 262.516 12.1108C262.516 12.8275 262.772 13.4444 263.277 13.9456C263.781 14.4463 264.404 14.701 265.127 14.701C265.848 14.701 266.471 14.4463 266.976 13.9456C267.482 13.4437 267.738 12.8267 267.738 12.1108C267.738 11.3933 267.48 10.786 266.976 10.3093C266.471 9.80815 265.848 9.55392 265.127 9.55392V9.55392ZM262.973 33.4963H267.199V16.8385H262.973V33.4963ZM281.439 28.0681C280.7 28.8999 279.752 29.3035 278.54 29.3035C277.328 29.3035 276.385 28.9001 275.657 28.0688C274.932 27.2424 274.564 26.1462 274.564 24.8108C274.564 23.4547 274.932 22.3447 275.657 21.512C276.376 20.688 277.345 20.2698 278.54 20.2698C279.751 20.2698 280.699 20.6761 281.438 21.5137C282.174 22.3464 282.547 23.4556 282.547 24.8108C282.547 26.1453 282.174 27.2412 281.439 28.0681ZM282.547 18.23C281.273 17.1058 279.85 16.4497 278.311 16.4497C275.978 16.4497 274.039 17.2505 272.549 18.8274C271.039 20.3914 270.273 22.4049 270.273 24.8108C270.273 27.1628 271.027 29.1692 272.516 30.7779C274.018 32.3345 275.967 33.1236 278.311 33.1236C279.94 33.1236 281.341 32.6738 282.482 31.7851V32.1685C282.482 33.5508 282.109 34.6258 281.373 35.3646C280.638 36.102 279.619 36.4754 278.344 36.4754C276.393 36.4754 275.17 35.7151 273.682 33.7196L270.804 36.4622L270.882 36.5701C271.503 37.4356 272.455 38.2826 273.712 39.0871C274.969 39.8887 276.549 40.2956 278.409 40.2956C280.918 40.2956 282.948 39.5284 284.443 38.0162C285.946 36.4957 286.708 34.4596 286.708 31.9665V16.8385H282.547V18.23H282.547ZM290.325 33.4963H294.551V16.8385H290.325V33.4963ZM292.479 9.55392C291.756 9.55392 291.134 9.80815 290.633 10.3056C290.125 10.7849 289.868 11.3925 289.868 12.1108C289.868 12.8275 290.124 13.4444 290.629 13.9456C291.134 14.4463 291.756 14.701 292.479 14.701C293.201 14.701 293.823 14.4463 294.328 13.9456C294.834 13.4437 295.09 12.8267 295.09 12.1108C295.09 11.3933 294.833 10.786 294.328 10.3093C293.823 9.80815 293.201 9.55392 292.479 9.55392H292.479ZM303.815 12.3373H299.654V16.8385H297.238V20.6586H299.654V27.578C299.654 29.7431 300.09 31.2925 300.951 32.182C301.814 33.0757 303.346 33.5288 305.505 33.5288C306.191 33.5288 306.882 33.5065 307.558 33.4625L307.748 33.45V29.6325L306.299 29.7078C305.293 29.7078 304.621 29.5324 304.302 29.1875C303.979 28.837 303.815 28.095 303.815 26.9837V20.6588H307.748V16.8385H303.815V12.3371V12.3373ZM327.565 33.4963H331.792V9.8452H327.565V33.4963ZM374.489 27.5398C373.733 28.3802 372.96 29.1086 372.364 29.4873V29.488C371.78 29.8599 371.042 30.0486 370.172 30.0486C368.927 30.0486 367.926 29.5988 367.11 28.6721C366.299 27.7508 365.888 26.5668 365.888 25.1509C365.888 23.735 366.294 22.5525 367.094 21.6378C367.899 20.7173 368.895 20.2698 370.14 20.2698C371.501 20.2698 372.936 21.1094 374.166 22.5512L376.959 19.8948C375.138 17.5438 372.815 16.4497 370.042 16.4497C367.722 16.4497 365.71 17.2883 364.064 18.9406C362.426 20.5815 361.596 22.6709 361.596 25.1509C361.596 27.6309 362.425 29.7257 364.061 31.3771C365.699 33.0305 367.711 33.8688 370.042 33.8688C373.102 33.8688 375.572 32.5587 377.237 30.1585L374.489 27.5398ZM382.598 23.0875C382.801 22.291 383.172 21.6272 383.701 21.1117C384.274 20.5529 385.02 20.2698 385.917 20.2698C386.942 20.2698 387.735 20.5586 388.274 21.1302C388.774 21.659 389.056 22.3171 389.115 23.0873H382.598V23.0875ZM391.835 19.1655C391.236 18.3374 390.42 17.6707 389.408 17.1834C388.4 16.6964 387.225 16.4495 385.916 16.4495C383.557 16.4495 381.627 17.3132 380.177 19.017C378.77 20.708 378.057 22.8096 378.057 25.2639C378.057 27.7887 378.84 29.8782 380.383 31.4744C381.917 33.0631 383.971 33.8688 386.487 33.8688C389.337 33.8688 391.676 32.7258 393.438 30.4708L393.534 30.3496L390.776 27.7215C390.521 28.0275 390.159 28.374 389.828 28.6832C389.411 29.0737 389.019 29.3759 388.6 29.5829C387.968 29.8948 387.259 30.0486 386.467 30.0486C385.296 30.0486 384.326 29.7069 383.585 29.0328C382.891 28.4029 382.486 27.5528 382.379 26.503H393.576L393.613 24.9732C393.613 23.8903 393.465 22.847 393.172 21.872C392.881 20.9012 392.429 19.9863 391.835 19.1655H391.835ZM400.562 27.1306C401.041 26.799 401.719 26.6323 402.575 26.6323C403.593 26.6323 404.672 26.8345 405.784 27.2346V28.8686C404.865 29.7155 403.638 30.145 402.136 30.145C401.404 30.145 400.835 29.9839 400.444 29.665C400.06 29.3531 399.874 28.9561 399.874 28.4533C399.874 27.8819 400.099 27.4487 400.562 27.1306H400.562ZM408.066 18.0848H408.065C406.785 17.0003 405.014 16.4495 402.804 16.4495C401.397 16.4495 400.082 16.7563 398.893 17.3543C397.792 17.9079 396.712 18.8243 396.025 20.0241L396.068 20.0754L398.774 22.6448C399.889 20.882 401.128 20.2699 402.772 20.2699C403.655 20.2699 404.388 20.505 404.951 20.9682C405.511 21.4283 405.784 22.0132 405.784 22.7551V23.5637C404.736 23.2475 403.691 23.0873 402.674 23.0873C400.571 23.0873 398.859 23.5783 397.588 24.5456C396.3 25.5259 395.647 26.9276 395.647 28.7123C395.647 30.2775 396.198 31.5492 397.287 32.494C398.385 33.4056 399.759 33.8688 401.368 33.8688C402.977 33.8688 404.482 33.2258 405.849 32.1247V33.4963H410.01V22.7876C410.01 20.7599 409.356 19.1781 408.066 18.0848V18.0848ZM426.269 18.4109C425.092 17.1102 423.437 16.4495 421.351 16.4495C419.675 16.4495 418.313 16.9271 417.294 17.8696V16.8385H413.15V33.4963H417.376V24.3094C417.376 23.0471 417.679 22.0449 418.276 21.3299C418.872 20.6164 419.691 20.2698 420.78 20.2698C421.737 20.2698 422.463 20.5798 422.998 21.2169C423.536 21.857 423.808 22.7388 423.808 23.84V33.4963H428.035V23.84C428.035 21.5328 427.441 19.7068 426.269 18.4109ZM314.75 27.1306C315.229 26.799 315.907 26.6323 316.763 26.6323C317.781 26.6323 318.859 26.8345 319.972 27.2346V28.8686C319.053 29.7155 317.826 30.145 316.323 30.145C315.592 30.145 315.023 29.9839 314.632 29.665C314.248 29.3531 314.062 28.9561 314.062 28.4533C314.062 27.8819 314.287 27.4487 314.75 27.1306ZM322.254 18.0848H322.253C320.972 17.0003 319.202 16.4495 316.992 16.4495C315.585 16.4495 314.271 16.7563 313.081 17.3543C311.98 17.9079 310.899 18.8243 310.213 20.0241L310.255 20.0754L312.962 22.6448C314.077 20.882 315.316 20.2699 316.959 20.2699C317.842 20.2699 318.576 20.505 319.139 20.9682C319.699 21.4283 319.972 22.0132 319.972 22.7551V23.5637C318.923 23.2475 317.878 23.0873 316.861 23.0873C314.758 23.0873 313.047 23.5783 311.775 24.5456C310.488 25.5259 309.835 26.9276 309.835 28.7123C309.835 30.2775 310.386 31.5492 311.475 32.494C312.573 33.4056 313.946 33.8688 315.556 33.8688C317.165 33.8688 318.67 33.2258 320.036 32.1247V33.4963H324.198V22.7876C324.198 20.7599 323.544 19.1781 322.254 18.0848H322.254ZM347.126 13.7646C342.737 13.7646 339.165 17.3062 339.165 21.6601C339.165 26.014 342.737 29.5556 347.126 29.5556C351.516 29.5556 355.087 26.014 355.087 21.6601C355.087 17.3062 351.516 13.7646 347.126 13.7646ZM347.126 33.8521C340.347 33.8521 334.833 28.383 334.833 21.6601C334.833 14.9369 340.347 9.46765 347.126 9.46765C353.905 9.46765 359.419 14.9369 359.419 21.6601C359.419 28.383 353.905 33.8521 347.126 33.8521Z" fill="#183D5D"/>
<path d="M457.081 26.8219H459.143V21.7758H464.19V19.7131H459.143V14.667H457.081V19.7131H452.035V21.7758H457.081V26.8219Z" fill="#183D5D"/>
<path d="M506.726 17.5981V27.7579H503.492V14.9875L510.169 14.9941C513.005 14.9941 513.971 16.994 513.971 18.8106V27.7579H510.743V18.8273C510.743 18.0663 510.349 17.5981 509.399 17.5981H506.726V17.5981ZM528.718 17.4455C527.612 17.4455 526.757 18.0138 526.4 18.7852C526.188 19.2484 526.115 19.6034 526.09 20.1705H531.066C531.002 18.7852 530.374 17.4455 528.718 17.4455V17.4455ZM526.09 22.3716C526.09 24.0259 527.118 25.2434 528.955 25.2434C530.383 25.2434 531.093 24.8476 531.919 24.0259L533.916 25.9331C532.637 27.1958 531.295 27.9626 528.931 27.9626C525.835 27.9626 522.872 26.2745 522.872 21.3546C522.872 17.1508 525.459 14.7711 528.858 14.7711C532.303 14.7711 534.294 17.5572 534.294 21.2067V22.3716H526.09V22.3716ZM520.142 27.7419C517.507 27.7419 516.389 25.9078 516.389 24.0963V11.5081H519.618V14.9875H522.053V17.5981H519.618V23.8939C519.618 24.6358 519.969 25.0476 520.739 25.0476H522.053V27.7419H520.142ZM500.614 13.2227H497.358V10.1294H500.614V13.2227ZM500.623 27.8922C498.184 27.6578 497.355 26.1788 497.355 24.472L497.358 14.9875H500.623V27.8922H500.623ZM539.434 27.6193C537 27.3846 536.174 25.9078 536.174 24.2034V9.68921H539.434V27.6193V27.6193ZM550.827 11.7868C547.873 -2.61294 519.921 -3.52453 501.904 7.44372V8.65463C519.903 -0.595144 545.429 -0.540655 547.755 12.7221C548.533 17.1076 546.062 21.68 541.648 24.3081V27.7466C546.961 25.8031 552.409 19.501 550.827 11.7868V11.7868ZM518.076 36.9808C505.642 38.1302 492.684 36.3253 490.871 26.6089C489.984 21.8189 492.166 16.7414 495.06 13.5874V11.9008C489.849 16.4705 487.021 22.2557 488.649 29.0914C490.727 37.857 501.848 42.8244 518.822 41.1748C525.538 40.5193 534.328 38.3599 540.439 35.0058V30.2408C534.894 33.5427 525.718 36.2732 518.076 36.9808" fill="#183D5D"/>
<path d="M543.2 19.1151C543.2 18.9571 543.108 18.9069 542.897 18.9069H542.694V19.3541C542.723 19.3541 542.871 19.3596 542.897 19.3596C543.108 19.3596 543.2 19.2891 543.2 19.1412V19.1151V19.1151ZM543.518 20.2241H543.277C543.255 20.2241 543.236 20.2104 543.227 20.1921L542.897 19.634C542.891 19.6227 542.863 19.6091 542.852 19.6091H542.704V20.1626C542.704 20.1921 542.684 20.2241 542.645 20.2241H542.426C542.399 20.2241 542.372 20.1921 542.372 20.1626V18.7625C542.372 18.6815 542.403 18.6477 542.472 18.6371C542.549 18.627 542.758 18.62 542.871 18.62C543.272 18.62 543.515 18.7383 543.515 19.1151V19.1412C543.515 19.3743 543.399 19.4973 543.219 19.5577L543.56 20.1349C543.562 20.1466 543.57 20.1626 543.57 20.1762C543.57 20.1987 543.557 20.224 543.518 20.224L543.518 20.2241ZM542.945 18.3674C542.351 18.3674 541.871 18.8578 541.871 19.4483C541.871 20.0395 542.351 20.5222 542.945 20.5222C543.536 20.5222 544.021 20.0395 544.021 19.4483C544.021 18.8578 543.536 18.3674 542.945 18.3674ZM542.945 20.7448C542.224 20.7448 541.648 20.1625 541.648 19.4483C541.648 18.7352 542.224 18.1514 542.945 18.1514C543.659 18.1514 544.246 18.7352 544.246 19.4483C544.246 20.1625 543.659 20.7448 542.945 20.7448Z" fill="#183D5D"/>
<path d="M580.151 26.8219H582.214V21.7758H587.26V19.7131H582.214V14.667H580.151V19.7131H575.105V21.7758H580.151V26.8219Z" fill="#183D5D"/>
<g clip-path="url(#clip1)">
<path d="M646.345 41C635.372 39.9396 624.393 38.8738 613.419 37.8134C613.232 37.7195 613.038 37.6312 612.851 37.5318C611.752 36.9574 611.155 35.875 611.277 34.66C612.315 23.913 613.353 13.1659 614.402 2.42441C614.424 2.17589 614.491 1.92185 614.601 1.70095C615.17 0.541194 616.368 -0.110476 617.666 0.0165443C628.259 1.04375 638.851 2.06544 649.449 3.09265C651.167 3.25833 652.387 4.75496 652.221 6.47802C651.2 17.0428 650.172 27.6131 649.151 38.1779C649.051 39.2106 648.549 40.0059 647.654 40.514C647.251 40.7404 646.782 40.8398 646.345 41ZM619.997 25.1611C620.052 25.1832 620.085 25.2053 620.118 25.2053C621.372 25.3268 622.62 25.4869 623.874 25.5587C625.387 25.6471 626.928 24.41 627.099 22.9355C627.342 20.8976 627.535 18.8487 627.695 16.7998C627.811 15.3087 626.491 13.7679 625.006 13.5912C623.796 13.4476 622.581 13.3482 621.366 13.2322C621.295 13.2267 621.223 13.2432 621.151 13.2488C620.764 17.2361 620.378 21.1958 619.997 25.1611ZM636.565 14.7123C636.565 14.8061 636.548 14.8724 636.559 14.9276C637.123 18.3517 637.669 21.7812 638.266 25.2053C638.349 25.6968 638.603 26.1938 638.901 26.597C639.409 27.2928 640.353 27.3756 640.977 26.7847C641.342 26.4368 641.673 25.995 641.855 25.5311C642.883 22.8802 643.855 20.2128 644.849 17.5509C645.086 16.9047 645.324 16.2586 645.567 15.5959C644.744 15.5186 643.976 15.4412 643.17 15.3639C642.22 17.954 641.27 20.5442 640.326 23.1343C640.232 22.9741 640.193 22.8029 640.165 22.6372C639.768 20.1686 639.376 17.7 638.973 15.2314C638.956 15.1209 638.857 14.9497 638.779 14.9387C638.045 14.8448 637.31 14.7841 636.565 14.7123ZM630.959 19.1193C631.014 18.545 631.059 18.0314 631.119 17.5178C631.164 17.1477 631.108 16.6397 631.324 16.4464C631.512 16.2752 632.02 16.4464 632.384 16.4795C633.268 16.5623 634.146 16.6507 635.04 16.7335C635.112 15.9935 635.179 15.2977 635.25 14.5797C633.654 14.4251 632.091 14.2594 630.523 14.1379C630.263 14.1158 629.96 14.2649 629.722 14.414C629.247 14.7067 629.137 15.2093 629.087 15.7284C628.822 18.4953 628.551 21.2621 628.286 24.0345C628.264 24.2498 628.253 24.4652 628.253 24.6806C628.253 25.4648 628.783 26.0502 629.568 26.1275C630.959 26.2656 632.351 26.3981 633.737 26.5307C633.859 26.5417 633.98 26.5417 634.096 26.5473C634.168 25.8183 634.234 25.1279 634.306 24.3934C633.025 24.2719 631.771 24.1504 630.517 24.0289C630.606 23.1011 630.694 22.223 630.783 21.3008C631.561 21.3781 632.312 21.4499 633.08 21.5217C633.152 20.7761 633.218 20.0803 633.29 19.3513C632.517 19.2684 631.771 19.1966 630.959 19.1193Z" fill="#183D5D"/>
<path d="M622.349 23.2393C622.598 20.6713 622.841 18.153 623.084 15.6292C623.62 15.6789 624.161 15.6733 624.669 15.8004C625.26 15.9439 625.553 16.452 625.492 17.1313C625.343 18.8268 625.183 20.5167 625 22.2066C624.917 22.9742 624.448 23.3664 623.664 23.3608C623.239 23.3553 622.813 23.2835 622.349 23.2393Z" fill="#183D5D"/>
</g>
</g>
<defs>
<clipPath id="clip0">
<rect width="652.232" height="41.4889" fill="white"/>
</clipPath>
<clipPath id="clip1">
<rect width="40.9724" height="41" fill="white" transform="translate(611.26)"/>
</clipPath>
</defs>
</svg>
