<svg width="770" height="141" viewBox="0 0 770 141" fill="none" xmlns="http://www.w3.org/2000/svg">
<path d="M0 0H690C734.183 0 770 35.8172 770 80V141H80C35.8172 141 0 105.183 0 61V0Z" fill="#183D5D"/>
<g clip-path="url(#clip0)">
<path d="M50 77.5402H52.2837V70.6524H56.409C60.8013 70.6524 62.7811 67.982 62.7811 64.6486C62.7811 61.3152 60.8013 58.6816 56.3721 58.6816H50V77.5402ZM52.2837 68.6265V60.7074H56.2985C59.3648 60.7074 60.5343 62.3833 60.5343 64.6486C60.5343 66.9138 59.3648 68.6265 56.3353 68.6265H52.2837Z" fill="#93C2DB"/>
<path d="M66.1652 77.5402H68.3383V68.5897C68.3383 66.6744 69.8485 65.2747 71.9111 65.2747C72.4913 65.2747 73.0898 65.3852 73.2371 65.4221V63.2121C72.9885 63.1936 72.4176 63.1752 72.0953 63.1752C70.401 63.1752 68.9277 64.1329 68.412 65.5326H68.2647V63.3962H66.1652V77.5402Z" fill="#93C2DB"/>
<path d="M81.3128 77.8348C84.1858 77.8348 86.2853 76.3983 86.9483 74.262L84.8488 73.6727C84.2963 75.146 83.0164 75.8827 81.3128 75.8827C78.7621 75.8827 77.0033 74.2344 76.902 71.2049H87.1693V70.284C87.1693 65.0169 84.0385 63.2121 81.0918 63.2121C77.2612 63.2121 74.7197 66.2324 74.7197 70.5787C74.7197 74.925 77.2243 77.8348 81.3128 77.8348ZM76.902 69.3264C77.0494 67.1256 78.6056 65.1642 81.0918 65.1642C83.4491 65.1642 84.9593 66.9322 84.9593 69.3264H76.902Z" fill="#93C2DB"/>
<path d="M100.494 66.5639C99.8123 64.5565 98.2837 63.2121 95.4844 63.2121C92.5009 63.2121 90.2909 64.9064 90.2909 67.3005C90.2909 69.2527 91.4512 70.5603 94.0479 71.168L96.4052 71.7205C97.8325 72.052 98.5047 72.7334 98.5047 73.7095C98.5047 74.925 97.2155 75.9195 95.1897 75.9195C93.4125 75.9195 92.2983 75.1552 91.9116 73.6359L89.8489 74.1515C90.3554 76.5549 92.3351 77.8348 95.2266 77.8348C98.5139 77.8348 100.752 76.0392 100.752 73.599C100.752 71.6284 99.5176 70.3853 96.9945 69.7684L94.8951 69.2527C93.2191 68.8383 92.4641 68.2766 92.4641 67.19C92.4641 65.9746 93.7532 65.0906 95.4844 65.0906C97.3813 65.0906 98.164 66.1403 98.5415 67.1164L100.494 66.5639Z" fill="#93C2DB"/>
<path d="M109.953 77.8348C112.826 77.8348 114.925 76.3983 115.588 74.262L113.489 73.6727C112.936 75.146 111.656 75.8827 109.953 75.8827C107.402 75.8827 105.643 74.2344 105.542 71.2049H115.809V70.284C115.809 65.0169 112.679 63.2121 109.732 63.2121C105.901 63.2121 103.36 66.2324 103.36 70.5787C103.36 74.925 105.864 77.8348 109.953 77.8348ZM105.542 69.3264C105.689 67.1256 107.246 65.1642 109.732 65.1642C112.089 65.1642 113.599 66.9322 113.599 69.3264H105.542Z" fill="#93C2DB"/>
<path d="M121.288 69.0317C121.288 66.5639 122.817 65.1642 124.898 65.1642C126.915 65.1642 128.139 66.481 128.139 68.7002V77.5402H130.312V68.5529C130.312 64.9432 128.388 63.2121 125.524 63.2121C123.388 63.2121 122.062 64.1697 121.399 65.6062H121.215V63.3962H119.115V77.5402H121.288V69.0317Z" fill="#93C2DB"/>
<path d="M140.435 63.3962H137.414V60.0076H135.241V63.3962H133.105V65.2379H135.241V74.0779C135.241 76.5457 137.23 77.7243 139.072 77.7243C139.882 77.7243 140.398 77.577 140.693 77.4665L140.251 75.5143C140.066 75.5512 139.772 75.6248 139.293 75.6248C138.335 75.6248 137.414 75.3302 137.414 73.4885V65.2379H140.435V63.3962Z" fill="#93C2DB"/>
<path d="M149.482 77.8348C152.355 77.8348 154.454 76.3983 155.117 74.262L153.018 73.6727C152.465 75.146 151.185 75.8827 149.482 75.8827C146.931 75.8827 145.172 74.2344 145.071 71.2049H155.338V70.284C155.338 65.0169 152.208 63.2121 149.261 63.2121C145.43 63.2121 142.889 66.2324 142.889 70.5787C142.889 74.925 145.393 77.8348 149.482 77.8348ZM145.071 69.3264C145.218 67.1256 146.775 65.1642 149.261 65.1642C151.618 65.1642 153.128 66.9322 153.128 69.3264H145.071Z" fill="#93C2DB"/>
<path d="M163.985 77.8348C166.711 77.8348 167.631 76.1405 168.11 75.367H168.368V77.5402H170.468V58.6816H168.294V65.6431H168.11C167.631 64.9064 166.784 63.2121 164.022 63.2121C160.449 63.2121 157.981 66.0482 157.981 70.505C157.981 74.9987 160.449 77.8348 163.985 77.8348ZM164.28 75.8827C161.554 75.8827 160.154 73.4885 160.154 70.4682C160.154 67.4847 161.517 65.1642 164.28 65.1642C166.932 65.1642 168.331 67.3005 168.331 70.4682C168.331 73.6727 166.895 75.8827 164.28 75.8827Z" fill="#93C2DB"/>
<path d="M182.337 77.5402H184.437V75.367H184.694C185.173 76.1405 186.094 77.8348 188.82 77.8348C192.356 77.8348 194.824 74.9987 194.824 70.505C194.824 66.0482 192.356 63.2121 188.783 63.2121C186.02 63.2121 185.173 64.9064 184.694 65.6431H184.51V58.6816H182.337V77.5402ZM184.473 70.4682C184.473 67.3005 185.873 65.1642 188.525 65.1642C191.288 65.1642 192.65 67.4847 192.65 70.4682C192.65 73.4885 191.251 75.8827 188.525 75.8827C185.91 75.8827 184.473 73.6727 184.473 70.4682Z" fill="#93C2DB"/>
<path d="M199.041 82.8073C201.002 82.8073 202.393 81.7668 203.203 79.6028L209.225 63.4331L206.85 63.3962L202.945 74.6672H202.798L198.894 63.3962H196.536L201.767 77.6138L201.361 78.7188C200.588 80.8367 199.593 81.0393 198.01 80.6342L197.457 82.5495C197.678 82.66 198.304 82.8073 199.041 82.8073Z" fill="#93C2DB"/>
<path fill-rule="evenodd" clip-rule="evenodd" d="M253.961 91.3104V83.3454C262.484 83.3454 269.074 74.9792 265.82 66.0932C264.615 62.8018 261.968 60.1767 258.649 58.982C249.69 55.7581 241.258 62.2918 241.256 70.7429C241.256 70.7429 241.255 70.7449 241.254 70.7449H233.225C233.225 57.2785 246.342 46.7932 260.57 51.1984C266.788 53.1236 271.729 58.0237 273.67 64.1901C278.111 78.3012 267.539 91.3104 253.961 91.3104Z" fill="#F2F8FF"/>
<path fill-rule="evenodd" clip-rule="evenodd" d="M252.717 83.6021H244.71V75.6634C244.71 75.6634 244.711 75.6618 244.712 75.6618H252.716C252.717 75.6618 252.717 75.6627 252.717 75.6627V83.6021H252.717ZM244.709 89.7038H238.559L238.557 89.7021V83.6021H244.71V89.7021L244.709 89.7038ZM238.561 83.6021H233.406C233.404 83.6021 233.402 83.6004 233.402 83.6004V78.4895C233.402 78.4895 233.404 78.4859 233.406 78.4859H238.558C238.56 78.4859 238.561 78.4875 238.561 78.4875V83.6021V83.6021ZM293.882 63.8432H296.241C298.866 63.8432 301.027 64.3554 302.665 65.3664C304.484 66.4542 305.406 68.5237 305.406 71.5169C305.406 74.6006 304.482 76.7633 302.659 77.9466H302.657C301.088 78.9761 298.94 79.4983 296.274 79.4983H293.882V63.8432ZM305.791 62.3073C303.416 60.6735 300.461 59.8451 297.008 59.8451H289.492V83.4965H297.008C300.453 83.4965 303.409 82.622 305.794 80.8989C307.091 79.9858 308.111 78.7094 308.824 77.1062C309.534 75.5119 309.894 73.6315 309.894 71.5171C309.894 69.4276 309.534 67.5714 308.824 65.9991C308.11 64.4196 307.09 63.1778 305.791 62.3074V62.3073ZM315.127 59.554C314.404 59.554 313.781 59.8082 313.28 60.3056C312.773 60.7849 312.516 61.3925 312.516 62.1108C312.516 62.8276 312.772 63.4445 313.277 63.9457C313.781 64.4464 314.404 64.701 315.127 64.701C315.848 64.701 316.471 64.4464 316.976 63.9457C317.482 63.4438 317.738 62.8267 317.738 62.1108C317.738 61.3934 317.48 60.7861 316.976 60.3094C316.471 59.8082 315.848 59.554 315.127 59.554V59.554ZM312.973 83.4964H317.199V66.8386H312.973V83.4964ZM331.439 78.0682C330.7 78.9 329.752 79.3036 328.54 79.3036C327.328 79.3036 326.385 78.9001 325.657 78.0689C324.932 77.2424 324.564 76.1463 324.564 74.8109C324.564 73.4548 324.932 72.3447 325.657 71.5121C326.376 70.688 327.345 70.2698 328.54 70.2698C329.751 70.2698 330.699 70.6762 331.438 71.5138C332.174 72.3464 332.547 73.4556 332.547 74.8109C332.547 76.1454 332.174 77.2413 331.439 78.0682ZM332.547 68.23C331.273 67.1058 329.85 66.4497 328.311 66.4497C325.978 66.4497 324.039 67.2506 322.549 68.8275C321.039 70.3915 320.273 72.405 320.273 74.8109C320.273 77.1629 321.027 79.1692 322.516 80.778C324.018 82.3345 325.967 83.1237 328.311 83.1237C329.94 83.1237 331.341 82.6739 332.482 81.7852V82.1686C332.482 83.5509 332.109 84.6259 331.373 85.3647C330.638 86.102 329.619 86.4754 328.344 86.4754C326.393 86.4754 325.17 85.7152 323.682 83.7197L320.804 86.4623L320.882 86.5701C321.503 87.4357 322.455 88.2826 323.712 89.0872C324.969 89.8888 326.549 90.2957 328.409 90.2957C330.918 90.2957 332.948 89.5284 334.443 88.0162C335.946 86.4957 336.708 84.4596 336.708 81.9666V66.8386H332.547V68.23H332.547ZM340.325 83.4964H344.551V66.8386H340.325V83.4964ZM342.479 59.554C341.756 59.554 341.134 59.8082 340.633 60.3056C340.125 60.7849 339.868 61.3925 339.868 62.1108C339.868 62.8276 340.124 63.4445 340.629 63.9457C341.134 64.4464 341.756 64.701 342.479 64.701C343.201 64.701 343.823 64.4464 344.328 63.9457C344.834 63.4438 345.09 62.8267 345.09 62.1108C345.09 61.3934 344.833 60.7861 344.328 60.3094C343.823 59.8082 343.201 59.554 342.479 59.554H342.479ZM353.815 62.3373H349.654V66.8386H347.238V70.6587H349.654V77.578C349.654 79.7432 350.09 81.2926 350.951 82.182C351.814 83.0758 353.346 83.5288 355.505 83.5288C356.191 83.5288 356.882 83.5065 357.558 83.4626L357.748 83.45V79.6326L356.299 79.7079C355.293 79.7079 354.621 79.5325 354.302 79.1875C353.979 78.837 353.815 78.0951 353.815 76.9838V70.6588H357.748V66.8386H353.815V62.3372V62.3373ZM377.565 83.4964H381.792V59.8453H377.565V83.4964ZM424.489 77.5399C423.733 78.3802 422.96 79.1087 422.364 79.4874V79.4881C421.78 79.8599 421.042 80.0486 420.172 80.0486C418.927 80.0486 417.926 79.5988 417.11 78.6722C416.299 77.7509 415.888 76.5669 415.888 75.1509C415.888 73.735 416.294 72.5526 417.094 71.6378C417.899 70.7174 418.895 70.2698 420.14 70.2698C421.501 70.2698 422.936 71.1095 424.166 72.5513L426.959 69.8949C425.138 67.5439 422.815 66.4497 420.042 66.4497C417.722 66.4497 415.71 67.2884 414.064 68.9406C412.426 70.5816 411.596 72.6709 411.596 75.1509C411.596 77.631 412.425 79.7257 414.061 81.3771C415.699 83.0305 417.711 83.8689 420.042 83.8689C423.102 83.8689 425.572 82.5587 427.237 80.1585L424.489 77.5399ZM432.598 73.0875C432.801 72.2911 433.172 71.6273 433.701 71.1118C434.274 70.553 435.02 70.2698 435.917 70.2698C436.942 70.2698 437.735 70.5587 438.274 71.1302C438.774 71.659 439.056 72.3171 439.115 73.0874H432.598V73.0875ZM441.835 69.1655C441.236 68.3375 440.42 67.6708 439.408 67.1835C438.4 66.6965 437.225 66.4496 435.916 66.4496C433.557 66.4496 431.627 67.3133 430.177 69.017C428.77 70.7081 428.057 72.8097 428.057 75.264C428.057 77.7888 428.84 79.8783 430.383 81.4744C431.917 83.0632 433.971 83.8689 436.487 83.8689C439.337 83.8689 441.676 82.7258 443.438 80.4708L443.534 80.3497L440.776 77.7215C440.521 78.0276 440.159 78.3741 439.828 78.6832C439.411 79.0738 439.019 79.3759 438.6 79.583C437.968 79.8948 437.259 80.0486 436.467 80.0486C435.296 80.0486 434.326 79.707 433.585 79.0329C432.891 78.403 432.486 77.5529 432.379 76.5031H443.576L443.613 74.9733C443.613 73.8904 443.465 72.847 443.172 71.872C442.881 70.9013 442.429 69.9863 441.835 69.1655H441.835ZM450.562 77.1307C451.041 76.7991 451.719 76.6324 452.575 76.6324C453.593 76.6324 454.672 76.8345 455.784 77.2347V78.8686C454.865 79.7156 453.638 80.1451 452.136 80.1451C451.404 80.1451 450.835 79.984 450.444 79.6651C450.06 79.3532 449.874 78.9562 449.874 78.4533C449.874 77.8819 450.099 77.4487 450.562 77.1307H450.562ZM458.066 68.0848H458.065C456.785 67.0004 455.014 66.4496 452.804 66.4496C451.397 66.4496 450.082 66.7563 448.893 67.3543C447.792 67.908 446.712 68.8243 446.025 70.0242L446.068 70.0754L448.774 72.6449C449.889 70.882 451.128 70.27 452.772 70.27C453.655 70.27 454.388 70.505 454.951 70.9683C455.511 71.4284 455.784 72.0132 455.784 72.7552V73.5638C454.736 73.2476 453.691 73.0874 452.674 73.0874C450.571 73.0874 448.859 73.5784 447.588 74.5456C446.3 75.5259 445.647 76.9277 445.647 78.7124C445.647 80.2775 446.198 81.5493 447.287 82.4941C448.385 83.4057 449.759 83.8689 451.368 83.8689C452.977 83.8689 454.482 83.2258 455.849 82.1248V83.4964H460.01V72.7877C460.01 70.76 459.356 69.1781 458.066 68.0848V68.0848ZM476.269 68.411C475.092 67.1103 473.437 66.4496 471.351 66.4496C469.675 66.4496 468.313 66.9271 467.294 67.8696V66.8386H463.15V83.4964H467.376V74.3094C467.376 73.0472 467.679 72.045 468.276 71.33C468.872 70.6165 469.691 70.2698 470.78 70.2698C471.737 70.2698 472.463 70.5799 472.998 71.2169C473.536 71.857 473.808 72.7389 473.808 73.84V83.4964H478.035V73.84C478.035 71.5328 477.441 69.7069 476.269 68.411ZM364.75 77.1307C365.229 76.7991 365.907 76.6324 366.763 76.6324C367.781 76.6324 368.859 76.8345 369.972 77.2347V78.8686C369.053 79.7156 367.826 80.1451 366.323 80.1451C365.592 80.1451 365.023 79.984 364.632 79.6651C364.248 79.3532 364.062 78.9562 364.062 78.4533C364.062 77.8819 364.287 77.4487 364.75 77.1307ZM372.254 68.0848H372.253C370.972 67.0004 369.202 66.4496 366.992 66.4496C365.585 66.4496 364.271 66.7563 363.081 67.3543C361.98 67.908 360.899 68.8243 360.213 70.0242L360.255 70.0754L362.962 72.6449C364.077 70.882 365.316 70.27 366.959 70.27C367.842 70.27 368.576 70.505 369.139 70.9683C369.699 71.4284 369.972 72.0132 369.972 72.7552V73.5638C368.923 73.2476 367.878 73.0874 366.861 73.0874C364.758 73.0874 363.047 73.5784 361.775 74.5456C360.488 75.5259 359.835 76.9277 359.835 78.7124C359.835 80.2775 360.386 81.5493 361.475 82.4941C362.573 83.4057 363.946 83.8689 365.556 83.8689C367.165 83.8689 368.67 83.2258 370.036 82.1248V83.4964H374.198V72.7877C374.198 70.76 373.544 69.1781 372.254 68.0848H372.254ZM397.126 63.7647C392.737 63.7647 389.165 67.3063 389.165 71.6602C389.165 76.0141 392.737 79.5556 397.126 79.5556C401.516 79.5556 405.087 76.0141 405.087 71.6602C405.087 67.3063 401.516 63.7647 397.126 63.7647ZM397.126 83.8522C390.347 83.8522 384.833 78.3831 384.833 71.6602C384.833 64.937 390.347 59.4677 397.126 59.4677C403.905 59.4677 409.419 64.937 409.419 71.6602C409.419 78.3831 403.905 83.8522 397.126 83.8522Z" fill="#F2F8FF"/>
<path d="M507.081 76.8219H509.143V71.7758H514.19V69.7131H509.143V64.667H507.081V69.7131H502.035V71.7758H507.081V76.8219Z" fill="#93C2DB"/>
<path d="M556.726 67.5981V77.7579H553.492V64.9875L560.169 64.9941C563.005 64.9941 563.971 66.994 563.971 68.8106V77.7579H560.743V68.8273C560.743 68.0663 560.349 67.5981 559.399 67.5981H556.726V67.5981ZM578.718 67.4455C577.612 67.4455 576.757 68.0138 576.4 68.7852C576.188 69.2484 576.115 69.6034 576.09 70.1705H581.066C581.002 68.7852 580.374 67.4455 578.718 67.4455V67.4455ZM576.09 72.3716C576.09 74.0259 577.118 75.2434 578.955 75.2434C580.383 75.2434 581.093 74.8476 581.919 74.0259L583.916 75.9331C582.637 77.1958 581.295 77.9626 578.931 77.9626C575.835 77.9626 572.872 76.2745 572.872 71.3546C572.872 67.1508 575.459 64.7711 578.858 64.7711C582.303 64.7711 584.294 67.5572 584.294 71.2067V72.3716H576.09V72.3716ZM570.142 77.7419C567.507 77.7419 566.389 75.9078 566.389 74.0963V61.5081H569.618V64.9875H572.053V67.5981H569.618V73.8939C569.618 74.6358 569.969 75.0476 570.739 75.0476H572.053V77.7419H570.142ZM550.614 63.2227H547.358V60.1294H550.614V63.2227ZM550.623 77.8922C548.184 77.6578 547.355 76.1788 547.355 74.472L547.358 64.9875H550.623V77.8922H550.623ZM589.434 77.6193C587 77.3846 586.174 75.9078 586.174 74.2034V59.6892H589.434V77.6193V77.6193ZM600.827 61.7868C597.873 47.3871 569.921 46.4755 551.904 57.4437V58.6546C569.903 49.4049 595.429 49.4593 597.755 62.7221C598.533 67.1076 596.062 71.68 591.648 74.3081V77.7466C596.961 75.8031 602.409 69.501 600.827 61.7868V61.7868ZM568.076 86.9808C555.642 88.1302 542.684 86.3253 540.871 76.6089C539.984 71.8189 542.166 66.7414 545.06 63.5874V61.9008C539.849 66.4705 537.021 72.2557 538.649 79.0914C540.727 87.857 551.848 92.8244 568.822 91.1748C575.538 90.5193 584.328 88.3599 590.439 85.0058V80.2408C584.894 83.5427 575.718 86.2732 568.076 86.9808" fill="white"/>
<path d="M593.2 69.1152C593.2 68.9572 593.108 68.9069 592.897 68.9069H592.694V69.3542C592.723 69.3542 592.871 69.3596 592.897 69.3596C593.108 69.3596 593.2 69.2892 593.2 69.1413V69.1152V69.1152ZM593.518 70.2241H593.277C593.255 70.2241 593.236 70.2105 593.227 70.1922L592.897 69.634C592.891 69.6228 592.863 69.6091 592.852 69.6091H592.704V70.1626C592.704 70.1922 592.684 70.2241 592.645 70.2241H592.426C592.399 70.2241 592.372 70.1922 592.372 70.1626V68.7625C592.372 68.6816 592.403 68.6477 592.472 68.6372C592.549 68.6271 592.758 68.6201 592.871 68.6201C593.272 68.6201 593.515 68.7384 593.515 69.1152V69.1413C593.515 69.3744 593.399 69.4974 593.219 69.5577L593.56 70.135C593.562 70.1466 593.57 70.1626 593.57 70.1762C593.57 70.1988 593.557 70.2241 593.518 70.2241L593.518 70.2241ZM592.945 68.3675C592.351 68.3675 591.871 68.8579 591.871 69.4484C591.871 70.0396 592.351 70.5223 592.945 70.5223C593.536 70.5223 594.021 70.0396 594.021 69.4484C594.021 68.8579 593.536 68.3675 592.945 68.3675ZM592.945 70.7449C592.224 70.7449 591.648 70.1626 591.648 69.4484C591.648 68.7353 592.224 68.1514 592.945 68.1514C593.659 68.1514 594.246 68.7353 594.246 69.4484C594.246 70.1626 593.659 70.7449 592.945 70.7449Z" fill="white"/>
<path d="M630.151 76.8219H632.214V71.7758H637.26V69.7131H632.214V64.667H630.151V69.7131H625.105V71.7758H630.151V76.8219Z" fill="#93C2DB"/>
<g clip-path="url(#clip1)">
<path d="M696.345 91C685.372 89.9397 674.393 88.8738 663.419 87.8135C663.232 87.7196 663.038 87.6312 662.851 87.5318C661.752 86.9575 661.155 85.875 661.277 84.6601C662.315 73.913 663.353 63.166 664.402 52.4245C664.424 52.176 664.491 51.9219 664.601 51.701C665.17 50.5413 666.368 49.8896 667.666 50.0166C678.259 51.0438 688.851 52.0655 699.449 53.0927C701.167 53.2584 702.387 54.755 702.221 56.4781C701.2 67.0429 700.172 77.6132 699.151 88.178C699.051 89.2107 698.549 90.006 697.654 90.514C697.251 90.7405 696.782 90.8399 696.345 91ZM669.997 75.1611C670.052 75.1832 670.085 75.2053 670.118 75.2053C671.372 75.3268 672.62 75.487 673.874 75.5588C675.387 75.6471 676.928 74.4101 677.099 72.9355C677.342 70.8977 677.535 68.8488 677.695 66.7999C677.811 65.3088 676.491 63.768 675.006 63.5912C673.796 63.4476 672.581 63.3482 671.366 63.2323C671.295 63.2267 671.223 63.2433 671.151 63.2488C670.764 67.2362 670.378 71.1959 669.997 75.1611ZM686.565 64.7123C686.565 64.8062 686.548 64.8725 686.559 64.9277C687.123 68.3517 687.669 71.7813 688.266 75.2053C688.349 75.6968 688.603 76.1939 688.901 76.597C689.409 77.2929 690.353 77.3757 690.977 76.7848C691.342 76.4369 691.673 75.9951 691.855 75.5312C692.883 72.8803 693.855 70.2129 694.849 67.551C695.086 66.9048 695.324 66.2587 695.567 65.5959C694.744 65.5186 693.976 65.4413 693.17 65.364C692.22 67.9541 691.27 70.5442 690.326 73.1343C690.232 72.9742 690.193 72.803 690.165 72.6373C689.768 70.1687 689.376 67.7001 688.973 65.2314C688.956 65.121 688.857 64.9498 688.779 64.9387C688.045 64.8449 687.31 64.7841 686.565 64.7123ZM680.959 69.1194C681.014 68.545 681.059 68.0314 681.119 67.5178C681.164 67.1478 681.108 66.6397 681.324 66.4464C681.512 66.2752 682.02 66.4464 682.384 66.4796C683.268 66.5624 684.146 66.6508 685.04 66.7336C685.112 65.9936 685.179 65.2977 685.25 64.5798C683.654 64.4251 682.091 64.2595 680.523 64.138C680.263 64.1159 679.96 64.265 679.722 64.4141C679.247 64.7068 679.137 65.2094 679.087 65.7285C678.822 68.4953 678.551 71.2622 678.286 74.0345C678.264 74.2499 678.253 74.4653 678.253 74.6807C678.253 75.4649 678.783 76.0503 679.568 76.1276C680.959 76.2657 682.351 76.3982 683.737 76.5307C683.859 76.5418 683.98 76.5418 684.096 76.5473C684.168 75.8183 684.234 75.128 684.306 74.3935C683.025 74.272 681.771 74.1505 680.517 74.029C680.606 73.1012 680.694 72.2231 680.783 71.3008C681.561 71.3781 682.312 71.4499 683.08 71.5217C683.152 70.7762 683.218 70.0803 683.29 69.3513C682.517 69.2685 681.771 69.1967 680.959 69.1194Z" fill="white"/>
<path d="M672.349 73.2393C672.598 70.6713 672.841 68.153 673.084 65.6292C673.62 65.6789 674.161 65.6733 674.669 65.8004C675.26 65.9439 675.553 66.452 675.492 67.1313C675.343 68.8268 675.183 70.5167 675 72.2066C674.917 72.9742 674.448 73.3664 673.664 73.3608C673.239 73.3553 672.813 73.2835 672.349 73.2393Z" fill="white"/>
</g>
</g>
<defs>
<clipPath id="clip0">
<rect width="652.232" height="41.4889" fill="white" transform="translate(50 50)"/>
</clipPath>
<clipPath id="clip1">
<rect width="40.9724" height="41" fill="white" transform="translate(661.26 50)"/>
</clipPath>
</defs>
</svg>
