<svg id="Layer_2" data-name="Layer 2" xmlns="http://www.w3.org/2000/svg" viewBox="0 0 442.76 344.02"><defs><style>.cls-1{fill:#12dd72;}</style></defs><title>logo</title><path class="cls-1" d="M795.63,297a29.07,29.07,0,0,0,.16,3.06A95.49,95.49,0,0,1,777.6,353.3a96.62,96.62,0,0,1-14.88,16.23,96,96,0,0,1-125.65,0A96.62,96.62,0,0,0,652,353.3a73.93,73.93,0,0,0,121.7-51.13h0q.17-2.54.18-5.14t-.18-5.14h0A73.44,73.44,0,0,0,762.72,258a74,74,0,0,0-125.65,0,73.49,73.49,0,0,0-10.94,33.86h0c-.12,1.69-.18,3.41-.18,5.13s.06,3.44.18,5.13h0a52.14,52.14,0,1,1-66.22-55.29,11.27,11.27,0,0,1,14.33,10.85v.12A11.36,11.36,0,0,1,566,268.71a29.49,29.49,0,0,0,6.43,57.74A30,30,0,0,0,604,300.08a29,29,0,0,0,0-6.13,95.49,95.49,0,0,1,18.19-53.22,96.62,96.62,0,0,1,14.88-16.23,96,96,0,0,1,125.65,0,96.22,96.22,0,0,1,25.83,35.77A95.51,95.51,0,0,1,795.79,294,29.07,29.07,0,0,0,795.63,297Z" transform="translate(-478.73 -201.07)"/><path class="cls-1" d="M752.21,291.87a52.14,52.14,0,0,0-103.77,0h0q.17,2.54.18,5.14t-.18,5.14h0A73.44,73.44,0,0,1,637.5,336a73.94,73.94,0,1,1-72.35-112.32,11,11,0,0,0,9.52-10.9h0a11,11,0,0,0-12.39-10.92,95.92,95.92,0,1,0,101,131.9,52.14,52.14,0,0,0,88.88-31.6Q752,299.61,752,297T752.21,291.87Zm-50.92,34.61A29.49,29.49,0,1,1,729.79,298,29.49,29.49,0,0,1,701.28,326.49Z" transform="translate(-478.73 -201.07)"/><path class="cls-1" d="M877.68,296.25a52.16,52.16,0,0,1-37.73,50.89,11.32,11.32,0,0,1-14.4-10.91h0a11.4,11.4,0,0,1,8.29-10.91,29.49,29.49,0,0,0-8.08-57.8,29.86,29.86,0,0,0-5.44.46l-.68.13A29.87,29.87,0,0,0,795.79,294a95.51,95.51,0,0,0-7.24-33.68,52.14,52.14,0,0,1,89.13,36Z" transform="translate(-478.73 -201.07)"/><path class="cls-1" d="M921.49,297a96,96,0,0,1-83.55,95.15,11,11,0,0,1-12.39-10.92h0a11,11,0,0,1,9.52-10.9A73.94,73.94,0,1,0,777.6,240.73a96.62,96.62,0,0,0-14.88-16.23A95.95,95.95,0,0,1,921.49,297Z" transform="translate(-478.73 -201.07)"/><path class="cls-1" d="M611.8,517.65a26.56,26.56,0,0,1-2.12,10.52,28,28,0,0,1-5.73,8.68,27.38,27.38,0,0,1-8.57,5.9,25.64,25.64,0,0,1-10.52,2.2H545.5a8.68,8.68,0,0,1-6.34-2.62,8.83,8.83,0,0,1,0-12.59,8.68,8.68,0,0,1,6.34-2.62h39.07a9,9,0,0,0,6.63-2.8,9.15,9.15,0,0,0,2.78-6.68,9.32,9.32,0,0,0-2.78-6.82,9,9,0,0,0-6.63-2.8H566a26.85,26.85,0,0,1-10.69-2.14,27.23,27.23,0,0,1-14.54-14.54,27.81,27.81,0,0,1,0-21.39,27.48,27.48,0,0,1,5.85-8.7,28.76,28.76,0,0,1,8.63-5.92,25.63,25.63,0,0,1,10.62-2.21H584a8.69,8.69,0,0,1,6.34,2.62,8.82,8.82,0,0,1,0,12.59A8.73,8.73,0,0,1,584,471H565.78a9.46,9.46,0,0,0-6.58,2.9,9.79,9.79,0,0,0,0,13.53,8.91,8.91,0,0,0,6.7,2.82h18.54a26.16,26.16,0,0,1,10.69,2.21,28.54,28.54,0,0,1,8.7,5.9,27.38,27.38,0,0,1,5.85,8.67A26.73,26.73,0,0,1,611.8,517.65Z" transform="translate(-478.73 -201.07)"/><path class="cls-1" d="M658.57,454a46,46,0,0,1,50,27.88,46.09,46.09,0,0,1,1,31.79,47.22,47.22,0,0,1-6.63,12.76,45.2,45.2,0,0,1-17.68,14.33A45.72,45.72,0,0,1,663,545a44.86,44.86,0,0,1-11.69-2.42,47.09,47.09,0,0,1-19.53-13,43.75,43.75,0,0,1-6.7-9.84,47.55,47.55,0,0,1-3.78-11,44.35,44.35,0,0,1-.93-11.48,49.33,49.33,0,0,1,1.92-11.41,41.83,41.83,0,0,1,4.78-10.62,27.48,27.48,0,0,1,2.42-3.71h.14A42.53,42.53,0,0,1,642.45,460,49.36,49.36,0,0,1,658.57,454Zm30.8,61.17a28.59,28.59,0,0,0,4.71-20,27.39,27.39,0,0,0-3.14-9.27,30.23,30.23,0,0,0-7.41-8.84,26.2,26.2,0,0,0-10.27-5.13,27.13,27.13,0,0,0-11.41-.71,27.69,27.69,0,0,0-10.84,4,28.49,28.49,0,0,0-10,11,27.61,27.61,0,0,0-3.14,14.54,26.18,26.18,0,0,0,3,11.12q.71,1.28,1.35,2.64a20.73,20.73,0,0,0,1.5,2.64q-1.28-2.14-2.42-4.42a28,28,0,0,0,5.85,7.34,30.77,30.77,0,0,0,8,5.2,26.42,26.42,0,0,0,9.55,2.21,26.75,26.75,0,0,0,9.7-1.35,28.08,28.08,0,0,0,8.41-4.28A29.24,29.24,0,0,0,689.36,515.15Z" transform="translate(-478.73 -201.07)"/><path class="cls-1" d="M789.17,517.65A26.55,26.55,0,0,1,787,528.17a28,28,0,0,1-5.73,8.68,27.37,27.37,0,0,1-8.57,5.9,25.64,25.64,0,0,1-10.52,2.2H722.87a8.68,8.68,0,0,1-6.34-2.62,8.83,8.83,0,0,1,0-12.59,8.68,8.68,0,0,1,6.34-2.62h39.07a9,9,0,0,0,6.63-2.8,9.15,9.15,0,0,0,2.78-6.68,9.32,9.32,0,0,0-2.78-6.82,9,9,0,0,0-6.63-2.8H743.4a26.85,26.85,0,0,1-10.69-2.14,27.23,27.23,0,0,1-14.54-14.54,27.81,27.81,0,0,1,0-21.39,27.48,27.48,0,0,1,5.85-8.7,28.76,28.76,0,0,1,8.63-5.92,25.63,25.63,0,0,1,10.62-2.21h18.11a8.69,8.69,0,0,1,6.34,2.62,8.82,8.82,0,0,1,0,12.59,8.73,8.73,0,0,1-6.37,2.62H743.15a9.46,9.46,0,0,0-6.58,2.9,9.79,9.79,0,0,0,0,13.53,8.91,8.91,0,0,0,6.7,2.82h18.54a26.16,26.16,0,0,1,10.69,2.21,28.54,28.54,0,0,1,8.7,5.9A27.38,27.38,0,0,1,787,507,26.73,26.73,0,0,1,789.17,517.65Z" transform="translate(-478.73 -201.07)"/><path class="cls-1" d="M864.45,529.91a8.78,8.78,0,0,1,2.57,6.34,8.76,8.76,0,0,1-8.84,8.84H847.62a43.94,43.94,0,0,1-17.75-3.64,47.3,47.3,0,0,1-14.59-9.84,46.8,46.8,0,0,1-9.91-14.54,45.16,45.16,0,0,1,0-35.64,46.79,46.79,0,0,1,9.91-14.54A47.3,47.3,0,0,1,829.87,457a43.94,43.94,0,0,1,17.75-3.64h10.55a8.76,8.76,0,0,1,8.84,8.84,8.77,8.77,0,0,1-2.57,6.34,8.41,8.41,0,0,1-6.27,2.64H847.62a27,27,0,0,0-10.91,2.21,29.48,29.48,0,0,0-8.91,6,27.69,27.69,0,0,0-6.06,8.91,27.1,27.1,0,0,0-2.21,10.84,27.76,27.76,0,0,0,8.27,19.89,29.37,29.37,0,0,0,8.91,6,26.92,26.92,0,0,0,10.91,2.21h10.55A8.42,8.42,0,0,1,864.45,529.91Z" transform="translate(-478.73 -201.07)"/></svg>