<svg width="707" height="251" viewBox="0 0 707 251" fill="none" xmlns="http://www.w3.org/2000/svg">
<path d="M71.9141 0.603516V48.6797C65.1465 41.3848 56.3574 37.6934 45.459 37.6934C32.9785 37.6934 22.3438 42.3516 13.7305 51.5801C5.11719 60.8086 0.810547 72.3223 0.810547 86.1211C0.810547 99.9199 5.11719 111.434 13.7305 120.662C22.3438 129.979 32.9785 134.549 45.459 134.549C56.0938 134.549 64.8828 130.945 71.9141 123.562V132H100.742V0.603516H71.9141ZM50.7324 108.973C44.4922 108.973 39.3945 106.863 35.3516 102.645C31.3086 98.4258 29.2871 92.8008 29.2871 85.9453C29.2871 79.2656 31.3086 73.8164 35.3516 69.5977C39.3945 65.3789 44.4922 63.2695 50.7324 63.2695C57.0605 63.2695 62.2461 65.3789 66.4648 69.5977C70.5957 73.8164 72.7051 79.2656 72.7051 85.9453C72.7051 92.8008 70.5957 98.3379 66.4648 102.557C62.334 106.863 57.0605 108.973 50.7324 108.973ZM167.275 134.549C178.35 134.549 187.93 131.912 195.84 126.639C203.75 121.365 209.199 115.477 212.1 108.797L186.172 101.238C182.656 107.479 176.592 110.555 167.803 110.555C154.707 110.555 147.061 105.281 144.951 94.7344H212.803C213.242 92.0098 213.506 88.8457 213.506 85.2422C213.506 71.5312 209.111 60.1934 200.498 51.2285C191.885 42.2637 180.195 37.6934 165.43 37.6934C150.928 37.6934 139.238 42.3516 130.273 51.4922C121.309 60.6328 116.826 72.2344 116.826 86.2969C116.826 100.623 121.484 112.225 130.801 121.189C140.117 130.154 152.246 134.549 167.275 134.549ZM144.951 77.4199C145.654 73.2012 147.764 69.5977 151.367 66.4336C154.971 63.3574 159.629 61.7754 165.254 61.7754C170.879 61.7754 175.537 63.3574 179.229 66.3457C182.92 69.4219 184.941 73.1133 185.469 77.4199H144.951ZM289.355 40.2422L267.559 99.2168L245.938 40.2422H214.297L251.387 132H283.818L320.82 40.2422H289.355ZM331.631 132H360.459V87.1758C360.459 80.1445 362.041 74.5195 365.205 70.4766C368.369 66.4336 372.676 64.3242 378.213 64.3242C389.111 64.3242 394.648 71.0039 394.648 84.2754V132H423.389V78.5625C423.389 65.9941 420.4 56.0625 414.424 48.6797C408.447 41.3848 399.482 37.6934 387.617 37.6934C376.455 37.6934 367.402 41.7363 360.459 49.7344V0.603516H331.631V132ZM334.18 129.451V3.15234H357.91V56.7656C365.469 45.7793 375.312 40.2422 387.617 40.2422C398.252 40.2422 406.426 43.582 412.227 50.1738C418.027 56.7656 420.928 66.2578 420.928 78.5625V129.451H397.109V84.2754C397.109 77.0684 395.439 71.5312 392.1 67.6641C388.76 63.7969 384.189 61.7754 378.213 61.7754C371.973 61.7754 367.051 64.0605 363.359 68.6309C359.668 73.2012 357.91 79.4414 357.91 87.1758V129.451H334.18ZM438.682 86.1211C438.682 99.9199 443.34 111.434 452.656 120.662C461.973 129.979 473.75 134.549 487.988 134.549C502.227 134.549 514.092 129.979 523.408 120.662C532.725 111.434 537.383 99.9199 537.383 86.1211C537.383 72.3223 532.725 60.8086 523.408 51.5801C514.092 42.3516 502.227 37.6934 487.988 37.6934C473.75 37.6934 461.973 42.3516 452.656 51.5801C443.34 60.8086 438.682 72.3223 438.682 86.1211ZM441.23 86.1211C441.23 72.9375 445.625 61.9512 454.502 53.25C463.379 44.6367 474.541 40.2422 487.988 40.2422C501.436 40.2422 512.598 44.6367 521.475 53.25C530.352 61.9512 534.834 72.9375 534.834 86.1211C534.834 99.3047 530.352 110.291 521.475 118.992C512.598 127.693 501.436 132 487.988 132C474.541 132 463.379 127.693 454.502 118.992C445.625 110.291 441.23 99.3047 441.23 86.1211ZM464.082 86.1211C464.082 93.5918 466.279 99.6562 470.762 104.227C475.156 108.797 480.957 111.082 487.988 111.082C495.02 111.082 500.82 108.797 505.303 104.227C509.697 99.6562 511.982 93.5918 511.982 86.1211C511.982 78.7383 509.697 72.6738 505.303 68.0156C500.82 63.4453 495.02 61.0723 487.988 61.0723C480.957 61.0723 475.156 63.4453 470.762 68.0156C466.279 72.6738 464.082 78.7383 464.082 86.1211ZM466.631 86.1211C466.631 79.5293 468.564 74.168 472.432 69.9492C476.299 65.7305 481.484 63.6211 487.988 63.6211C494.492 63.6211 499.678 65.7305 503.545 69.9492C507.412 74.168 509.434 79.5293 509.434 86.1211C509.434 92.7129 507.412 98.0742 503.545 102.293C499.678 106.512 494.492 108.621 487.988 108.621C481.484 108.621 476.299 106.512 472.432 102.293C468.564 98.0742 466.631 92.7129 466.631 86.1211ZM545.029 106.072C547.402 113.895 552.852 120.574 561.289 126.199C569.727 131.824 579.57 134.549 590.908 134.549C602.861 134.549 612.705 131.736 620.352 125.936C627.91 120.223 631.777 112.928 631.777 103.963C631.777 99.7441 631.074 96.1406 629.668 92.9766C628.262 89.8125 626.152 87.2637 623.34 85.2422C620.527 83.2207 617.715 81.5508 614.902 80.3203C612.09 79.0898 608.574 77.9473 604.355 76.7168L583.174 70.8281C579.658 69.5977 577.9 67.8398 577.9 65.3789C577.9 63.7969 578.867 62.3906 580.801 61.3359C582.734 60.2812 585.02 59.666 587.656 59.666C594.512 59.666 600.049 62.5664 604.18 68.2793L629.404 61.0723C626.416 53.8652 621.143 48.2402 613.76 44.0215C606.289 39.8027 597.676 37.6934 587.832 37.6934C577.373 37.6934 568.408 40.418 560.938 45.8672C553.379 51.3164 549.688 58.084 549.688 66.082C549.688 78.4746 557.422 87 572.891 91.6582L594.863 98.1621C600.576 99.9199 603.477 102.205 603.477 105.193C603.477 107.039 602.422 108.621 600.312 109.939C598.203 111.258 595.391 111.873 591.963 111.873C586.777 111.873 582.295 110.643 578.604 108.182C574.912 105.721 572.275 102.557 570.693 98.5137L545.029 106.072ZM548.193 107.742L569.287 101.59C573.945 110.115 581.504 114.334 591.963 114.334C595.918 114.334 599.258 113.543 601.982 111.785C604.619 110.027 606.025 107.83 606.025 105.193C606.025 100.975 602.51 97.8984 595.566 95.7891L573.594 89.373C559.268 84.8906 552.148 77.1562 552.148 66.082C552.148 59.0508 555.576 52.9863 562.607 47.8887C569.551 42.791 577.988 40.2422 587.832 40.2422C596.445 40.2422 604.092 42 610.947 45.4277C617.715 48.8555 622.637 53.5137 625.801 59.4902L605.146 65.3789C600.664 59.9297 594.863 57.1172 587.656 57.1172C584.316 57.1172 581.416 57.9082 579.043 59.4902C576.582 61.0723 575.439 63.0059 575.439 65.3789C575.439 69.0703 577.725 71.707 582.471 73.1133L603.652 79.0898C612.266 81.6387 618.682 84.627 622.9 87.9668C627.119 91.3066 629.229 96.668 629.229 103.963C629.229 112.137 625.625 118.816 618.506 124.09C611.387 129.363 602.158 132 590.908 132C581.24 132 572.451 129.803 564.453 125.232C556.455 120.662 551.006 114.861 548.193 107.742ZM637.227 65.3789H651.465V98.8652C651.465 109.676 654.102 118.113 659.551 124.266C665 130.418 673.086 133.406 683.896 133.406C691.279 133.406 698.838 131.912 706.396 128.924L699.541 106.072C696.465 107.654 693.213 108.445 689.785 108.445C683.457 108.445 680.293 105.281 680.293 98.8652V65.3789H704.99V40.2422H680.293V11.4141H651.465V40.2422H637.227V65.3789ZM639.775 62.918V42.7031H654.014V13.9629H677.744V42.7031H702.441V62.918H677.744V98.8652C677.744 106.951 681.699 110.906 689.785 110.906C692.949 110.906 695.674 110.467 697.959 109.5L703.32 127.518C696.553 129.803 690.049 130.945 683.896 130.945C663.945 130.945 654.014 120.311 654.014 98.8652V62.918H639.775ZM427.783 232.877L448.286 213.897C453.999 208.629 458.252 203.805 460.918 199.425C463.584 195.045 464.98 190.157 464.98 184.762C464.98 175.748 461.997 168.766 456.03 163.751C450.063 158.736 442.256 156.197 432.607 156.197C423.911 156.197 416.611 158.8 410.708 164.005C404.741 169.21 401.313 175.367 400.361 182.54L416.357 187.11C417.246 182.667 419.214 179.049 422.261 176.319C425.244 173.59 428.799 172.193 432.988 172.193C437.432 172.193 440.923 173.463 443.462 175.875C446.001 178.287 447.271 181.588 447.271 185.714C447.271 188.761 446.318 191.554 444.541 194.156C442.7 196.759 439.907 199.806 436.099 203.36L400.615 236.749V249H466.377V232.877H427.783ZM512.017 250.841C523.823 250.841 533.027 246.461 539.629 237.638C546.23 228.878 549.595 217.452 549.595 203.487C549.595 189.459 546.23 178.097 539.629 169.337C533.027 160.577 523.823 156.197 512.017 156.197C500.21 156.197 491.006 160.577 484.341 169.337C477.676 178.097 474.375 189.459 474.375 203.487C474.375 217.452 477.676 228.878 484.341 237.638C491.006 246.461 500.21 250.841 512.017 250.841ZM512.017 234.591C505.542 234.591 500.591 231.861 497.227 226.275C493.799 220.753 492.148 213.199 492.148 203.551C492.148 193.902 493.799 186.349 497.227 180.763C500.591 175.24 505.542 172.447 512.017 172.447C518.491 172.447 523.442 175.24 526.807 180.763C530.107 186.349 531.821 193.902 531.821 203.551C531.821 213.199 530.107 220.753 526.807 226.275C523.442 231.861 518.491 234.591 512.017 234.591ZM583.555 232.877L604.058 213.897C609.771 208.629 614.023 203.805 616.689 199.425C619.355 195.045 620.752 190.157 620.752 184.762C620.752 175.748 617.769 168.766 611.802 163.751C605.835 158.736 598.027 156.197 588.379 156.197C579.683 156.197 572.383 158.8 566.479 164.005C560.513 169.21 557.085 175.367 556.133 182.54L572.129 187.11C573.018 182.667 574.985 179.049 578.032 176.319C581.016 173.59 584.57 172.193 588.76 172.193C593.203 172.193 596.694 173.463 599.233 175.875C601.772 178.287 603.042 181.588 603.042 185.714C603.042 188.761 602.09 191.554 600.312 194.156C598.472 196.759 595.679 199.806 591.87 203.36L556.387 236.749V249H622.148V232.877H583.555ZM667.788 250.841C679.595 250.841 688.799 246.461 695.4 237.638C702.002 228.878 705.366 217.452 705.366 203.487C705.366 189.459 702.002 178.097 695.4 169.337C688.799 160.577 679.595 156.197 667.788 156.197C655.981 156.197 646.777 160.577 640.112 169.337C633.447 178.097 630.146 189.459 630.146 203.487C630.146 217.452 633.447 228.878 640.112 237.638C646.777 246.461 655.981 250.841 667.788 250.841ZM667.788 234.591C661.313 234.591 656.362 231.861 652.998 226.275C649.57 220.753 647.92 213.199 647.92 203.551C647.92 193.902 649.57 186.349 652.998 180.763C656.362 175.24 661.313 172.447 667.788 172.447C674.263 172.447 679.214 175.24 682.578 180.763C685.879 186.349 687.593 193.902 687.593 203.551C687.593 213.199 685.879 220.753 682.578 226.275C679.214 231.861 674.263 234.591 667.788 234.591Z" fill="#FFFFFE"/>
</svg>
