<svg width="708" height="90" viewBox="0 0 708 90" fill="none" xmlns="http://www.w3.org/2000/svg">
<path d="M47.9766 0.402344V32.4531C43.4648 27.5898 37.6055 25.1289 30.3398 25.1289C22.0195 25.1289 14.9297 28.2344 9.1875 34.3867C3.44531 40.5391 0.574219 48.2148 0.574219 57.4141C0.574219 66.6133 3.44531 74.2891 9.1875 80.4414C14.9297 86.6523 22.0195 89.6992 30.3398 89.6992C37.4297 89.6992 43.2891 87.2969 47.9766 82.375V88H67.1953V0.402344H47.9766ZM33.8555 72.6484C29.6953 72.6484 26.2969 71.2422 23.6016 68.4297C20.9062 65.6172 19.5586 61.8672 19.5586 57.2969C19.5586 52.8438 20.9062 49.2109 23.6016 46.3984C26.2969 43.5859 29.6953 42.1797 33.8555 42.1797C38.0742 42.1797 41.5312 43.5859 44.3438 46.3984C47.0977 49.2109 48.5039 52.8438 48.5039 57.2969C48.5039 61.8672 47.0977 65.5586 44.3438 68.3711C41.5898 71.2422 38.0742 72.6484 33.8555 72.6484ZM111.551 89.6992C118.934 89.6992 125.32 87.9414 130.594 84.4258C135.867 80.9102 139.5 76.9844 141.434 72.5312L124.148 67.4922C121.805 71.6523 117.762 73.7031 111.902 73.7031C103.172 73.7031 98.0742 70.1875 96.668 63.1562H141.902C142.195 61.3398 142.371 59.2305 142.371 56.8281C142.371 47.6875 139.441 40.1289 133.699 34.1523C127.957 28.1758 120.164 25.1289 110.32 25.1289C100.652 25.1289 92.8594 28.2344 86.8828 34.3281C80.9062 40.4219 77.918 48.1562 77.918 57.5312C77.918 67.082 81.0234 74.8164 87.2344 80.793C93.4453 86.7695 101.531 89.6992 111.551 89.6992ZM96.668 51.6133C97.1367 48.8008 98.543 46.3984 100.945 44.2891C103.348 42.2383 106.453 41.1836 110.203 41.1836C113.953 41.1836 117.059 42.2383 119.52 44.2305C121.98 46.2812 123.328 48.7422 123.68 51.6133H96.668ZM192.938 26.8281L178.406 66.1445L163.992 26.8281H142.898L167.625 88H189.246L213.914 26.8281H192.938ZM221.121 88H240.34V58.1172C240.34 53.4297 241.395 49.6797 243.504 46.9844C245.613 44.2891 248.484 42.8828 252.176 42.8828C259.441 42.8828 263.133 47.3359 263.133 56.1836V88H282.293V52.375C282.293 43.9961 280.301 37.375 276.316 32.4531C272.332 27.5898 266.355 25.1289 258.445 25.1289C251.004 25.1289 244.969 27.8242 240.34 33.1562V0.402344H221.121V88ZM222.82 86.3008V2.10156H238.641V37.8438C243.68 30.5195 250.242 26.8281 258.445 26.8281C265.535 26.8281 270.984 29.0547 274.852 33.4492C278.719 37.8438 280.652 44.1719 280.652 52.375V86.3008H264.773V56.1836C264.773 51.3789 263.66 47.6875 261.434 45.1094C259.207 42.5312 256.16 41.1836 252.176 41.1836C248.016 41.1836 244.734 42.707 242.273 45.7539C239.812 48.8008 238.641 52.9609 238.641 58.1172V86.3008H222.82ZM292.488 57.4141C292.488 66.6133 295.594 74.2891 301.805 80.4414C308.016 86.6523 315.867 89.6992 325.359 89.6992C334.852 89.6992 342.762 86.6523 348.973 80.4414C355.184 74.2891 358.289 66.6133 358.289 57.4141C358.289 48.2148 355.184 40.5391 348.973 34.3867C342.762 28.2344 334.852 25.1289 325.359 25.1289C315.867 25.1289 308.016 28.2344 301.805 34.3867C295.594 40.5391 292.488 48.2148 292.488 57.4141ZM294.188 57.4141C294.188 48.625 297.117 41.3008 303.035 35.5C308.953 29.7578 316.395 26.8281 325.359 26.8281C334.324 26.8281 341.766 29.7578 347.684 35.5C353.602 41.3008 356.59 48.625 356.59 57.4141C356.59 66.2031 353.602 73.5273 347.684 79.3281C341.766 85.1289 334.324 88 325.359 88C316.395 88 308.953 85.1289 303.035 79.3281C297.117 73.5273 294.188 66.2031 294.188 57.4141ZM309.422 57.4141C309.422 62.3945 310.887 66.4375 313.875 69.4844C316.805 72.5312 320.672 74.0547 325.359 74.0547C330.047 74.0547 333.914 72.5312 336.902 69.4844C339.832 66.4375 341.355 62.3945 341.355 57.4141C341.355 52.4922 339.832 48.4492 336.902 45.3438C333.914 42.2969 330.047 40.7148 325.359 40.7148C320.672 40.7148 316.805 42.2969 313.875 45.3438C310.887 48.4492 309.422 52.4922 309.422 57.4141ZM311.121 57.4141C311.121 53.0195 312.41 49.4453 314.988 46.6328C317.566 43.8203 321.023 42.4141 325.359 42.4141C329.695 42.4141 333.152 43.8203 335.73 46.6328C338.309 49.4453 339.656 53.0195 339.656 57.4141C339.656 61.8086 338.309 65.3828 335.73 68.1953C333.152 71.0078 329.695 72.4141 325.359 72.4141C321.023 72.4141 317.566 71.0078 314.988 68.1953C312.41 65.3828 311.121 61.8086 311.121 57.4141ZM363.387 70.7148C364.969 75.9297 368.602 80.3828 374.227 84.1328C379.852 87.8828 386.414 89.6992 393.973 89.6992C401.941 89.6992 408.504 87.8242 413.602 83.957C418.641 80.1484 421.219 75.2852 421.219 69.3086C421.219 66.4961 420.75 64.0938 419.812 61.9844C418.875 59.875 417.469 58.1758 415.594 56.8281C413.719 55.4805 411.844 54.3672 409.969 53.5469C408.094 52.7266 405.75 51.9648 402.938 51.1445L388.816 47.2188C386.473 46.3984 385.301 45.2266 385.301 43.5859C385.301 42.5312 385.945 41.5938 387.234 40.8906C388.523 40.1875 390.047 39.7773 391.805 39.7773C396.375 39.7773 400.066 41.7109 402.82 45.5195L419.637 40.7148C417.645 35.9102 414.129 32.1602 409.207 29.3477C404.227 26.5352 398.484 25.1289 391.922 25.1289C384.949 25.1289 378.973 26.9453 373.992 30.5781C368.953 34.2109 366.492 38.7227 366.492 44.0547C366.492 52.3164 371.648 58 381.961 61.1055L396.609 65.4414C400.418 66.6133 402.352 68.1367 402.352 70.1289C402.352 71.3594 401.648 72.4141 400.242 73.293C398.836 74.1719 396.961 74.582 394.676 74.582C391.219 74.582 388.23 73.7617 385.77 72.1211C383.309 70.4805 381.551 68.3711 380.496 65.6758L363.387 70.7148ZM365.496 71.8281L379.559 67.7266C382.664 73.4102 387.703 76.2227 394.676 76.2227C397.312 76.2227 399.539 75.6953 401.355 74.5234C403.113 73.3516 404.051 71.8867 404.051 70.1289C404.051 67.3164 401.707 65.2656 397.078 63.8594L382.43 59.582C372.879 56.5938 368.133 51.4375 368.133 44.0547C368.133 39.3672 370.418 35.3242 375.105 31.9258C379.734 28.5273 385.359 26.8281 391.922 26.8281C397.664 26.8281 402.762 28 407.332 30.2852C411.844 32.5703 415.125 35.6758 417.234 39.6602L403.465 43.5859C400.477 39.9531 396.609 38.0781 391.805 38.0781C389.578 38.0781 387.645 38.6055 386.062 39.6602C384.422 40.7148 383.66 42.0039 383.66 43.5859C383.66 46.0469 385.184 47.8047 388.348 48.7422L402.469 52.7266C408.211 54.4258 412.488 56.418 415.301 58.6445C418.113 60.8711 419.52 64.4453 419.52 69.3086C419.52 74.7578 417.117 79.2109 412.371 82.7266C407.625 86.2422 401.473 88 393.973 88C387.527 88 381.668 86.5352 376.336 83.4883C371.004 80.4414 367.371 76.5742 365.496 71.8281ZM424.852 43.5859H434.344V65.9102C434.344 73.1172 436.102 78.7422 439.734 82.8438C443.367 86.9453 448.758 88.9375 455.965 88.9375C460.887 88.9375 465.926 87.9414 470.965 85.9492L466.395 70.7148C464.344 71.7695 462.176 72.2969 459.891 72.2969C455.672 72.2969 453.562 70.1875 453.562 65.9102V43.5859H470.027V26.8281H453.562V7.60938H434.344V26.8281H424.852V43.5859ZM426.551 41.9453V28.4688H436.043V9.30859H451.863V28.4688H468.328V41.9453H451.863V65.9102C451.863 71.3008 454.5 73.9375 459.891 73.9375C462 73.9375 463.816 73.6445 465.34 73L468.914 85.0117C464.402 86.5352 460.066 87.2969 455.965 87.2969C442.664 87.2969 436.043 80.207 436.043 65.9102V41.9453H426.551ZM518.367 48.0391C521.473 48.0391 524.109 46.9844 526.336 44.8164C528.562 42.707 529.676 40.0117 529.676 36.7891C529.676 33.7422 528.562 31.1641 526.336 29.0547C524.109 26.9453 521.473 25.832 518.367 25.832C515.203 25.832 512.508 26.9453 510.281 29.0547C508.055 31.1641 507 33.7422 507 36.7891C507 39.9531 508.055 42.6484 510.281 44.8164C512.449 46.9844 515.145 48.0391 518.367 48.0391ZM518.367 88.9375C521.473 88.9375 524.109 87.8828 526.336 85.7148C528.562 83.6055 529.676 80.9102 529.676 77.6875C529.676 74.6406 528.562 72.0625 526.336 69.9531C524.109 67.8438 521.473 66.7891 518.367 66.7891C515.203 66.7891 512.508 67.8438 510.281 69.9531C508.055 72.0625 507 74.6406 507 77.6875C507 80.9102 508.055 83.6055 510.281 85.7148C512.449 87.8828 515.145 88.9375 518.367 88.9375ZM597.938 70.0117L613.406 56.0664C618.562 51.3789 622.371 46.9844 624.832 42.8828C627.293 38.7812 628.523 34.2109 628.523 29.1719C628.523 20.6172 625.652 14.0547 620.027 9.36719C614.344 4.67969 606.844 2.33594 597.469 2.33594C589.207 2.33594 582.234 4.79688 576.609 9.71875C570.984 14.6406 567.703 20.5586 566.824 27.4141L584.754 32.5703C585.516 28.8203 587.098 25.832 589.441 23.5469C591.785 21.2617 594.656 20.0898 597.938 20.0898C601.277 20.0898 603.914 21.0273 605.848 22.8438C607.723 24.7188 608.719 27.2383 608.719 30.4023C608.719 32.8047 607.957 35.0898 606.551 37.1992C605.145 39.3086 602.859 41.7695 599.754 44.582L567.352 74.6992V88H629.637V70.0117H597.938ZM671.824 89.6992C682.957 89.6992 691.688 85.6562 698.016 77.5703C704.344 69.4844 707.508 58.9961 707.508 45.9883C707.508 33.0391 704.344 22.5508 698.016 14.4648C691.688 6.37891 682.957 2.33594 671.824 2.33594C660.691 2.33594 651.961 6.37891 645.633 14.4648C639.246 22.5508 636.082 33.0391 636.082 45.9883C636.082 58.9961 639.246 69.4844 645.633 77.5703C651.961 85.6562 660.691 89.6992 671.824 89.6992ZM671.883 71.6523C666.609 71.6523 662.625 69.4258 659.988 64.9141C657.293 60.4023 656.004 54.0742 656.004 45.9883C656.004 37.9023 657.293 31.6328 659.988 27.1211C662.625 22.6094 666.609 20.3242 671.883 20.3242C677.156 20.3242 681.082 22.6094 683.66 27.1211C686.238 31.6328 687.586 37.9023 687.586 45.9883C687.586 54.0742 686.238 60.4023 683.66 64.9141C681.082 69.4258 677.156 71.6523 671.883 71.6523Z" fill="#FFFFFE"/>
</svg>
