<svg xmlns="http://www.w3.org/2000/svg" viewBox="0 0 506 547.73">
  <title>SOSWC</title>
  <g>
    <g>
      <path d="M753.78,686.75H742.45a12,12,0,0,1-4.91-1,14.49,14.49,0,0,1-4.46-3,12.75,12.75,0,0,1-2.79-4.15,12.52,12.52,0,0,1-1-5.05,12.15,12.15,0,0,1,1-4.91,12.76,12.76,0,0,1,2.79-4.15,14.59,14.59,0,0,1,4.46-3,12,12,0,0,1,4.9-1h11.32a26.56,26.56,0,1,0,0-53.12H742.45a64.25,64.25,0,0,0-25.84,5.32,67.87,67.87,0,0,0-20.84,14.08c-.53.53-1,1.07-1.55,1.62a26.49,26.49,0,0,0-44.81-13.27,26.14,26.14,0,0,0-7.49,18.59v22a44,44,0,0,0-26.89,0v-22a26.56,26.56,0,0,0-53.12,0v23.33a48.07,48.07,0,0,0-9.39-5.84,26.56,26.56,0,0,0-20-44.13H513.11a44.52,44.52,0,0,0-18.37,3.87,47.94,47.94,0,0,0-14.31,9.83,45.8,45.8,0,0,0-4.34,5,65,65,0,0,0-25.47-15.3,65.67,65.67,0,0,0-20.16-3.2,66.71,66.71,0,0,0-11.06.93l-.24,0a70.19,70.19,0,0,0-22.8,8.47,62.52,62.52,0,0,0-13,10.07h-.74l-5.1,6.63a47,47,0,0,0-3.81,5.76A62.11,62.11,0,0,0,367.13,654a49,49,0,0,0-5-2.71,26.56,26.56,0,0,0-20-44.13H322.78a44.52,44.52,0,0,0-18.37,3.87,47.9,47.9,0,0,0-14.31,9.83,46.53,46.53,0,0,0-9.88,14.66,46.83,46.83,0,0,0,0,36.34,46.45,46.45,0,0,0,9.87,14.65q.83.83,1.7,1.62a26.41,26.41,0,0,0-9.67,6.18,26.56,26.56,0,0,0,18.78,45.39h42.23a44.53,44.53,0,0,0,18.2-3.83,45.74,45.74,0,0,0,20.35-17.44,67,67,0,0,0,27.13,17.72,65.37,65.37,0,0,0,17,3.51h.16c1.39.09,2.79.13,4.16.13a67.46,67.46,0,0,0,38.65-12.4,27.28,27.28,0,0,0,3.71,4.56,26.15,26.15,0,0,0,18.78,7.74h42.23a44.53,44.53,0,0,0,18.2-3.83,46.52,46.52,0,0,0,13.78-9.33,26.76,26.76,0,0,0,4.2,5.42,26,26,0,0,0,18.75,7.73,26.67,26.67,0,0,0,7.87-1.18A26.14,26.14,0,0,0,608,731l.54-.56c.72-.76,1.45-1.52,2.19-2.26l17.53-17.53,20.09,20.21a26.56,26.56,0,0,0,3.43,3.07c.48.35,1,.68,1.46,1l.14.09a26.63,26.63,0,0,0,14.82,4.67,26.43,26.43,0,0,0,25.92-20.92c.53.56,1.05,1.12,1.6,1.67a67.88,67.88,0,0,0,20.84,14.08,64.26,64.26,0,0,0,25.84,5.32h11.32a26.4,26.4,0,0,0,26.49-26.49,26.53,26.53,0,0,0-26.49-26.64ZM443.24,676.58a13.7,13.7,0,0,1-2,4.49,14.43,14.43,0,0,1-3.18,3.2,13.14,13.14,0,0,1-4,2l-.32.1a11.63,11.63,0,0,1-3.74.61h-.55a11.4,11.4,0,0,1-4.08-.92,16,16,0,0,1-4.1-2.69,13.08,13.08,0,0,1-2.37-2.8q-.37-.71-.75-1.4a11,11,0,0,1-1.21-4.7v-.14a12.64,12.64,0,0,1,1.47-6.81,13.53,13.53,0,0,1,4.76-5.29,12.75,12.75,0,0,1,5-1.81,13.39,13.39,0,0,1,1.93-.14,11.79,11.79,0,0,1,3.24.45l.24.07.24.06a11,11,0,0,1,4.42,2.21,15.46,15.46,0,0,1,3.83,4.56l.09.16a12.48,12.48,0,0,1,1.31,4A13.48,13.48,0,0,1,443.24,676.58Z" transform="translate(-274.26 -192.14)"/>
      <path d="M372,693.42a28.5,28.5,0,0,1-2.28,11.29,30.06,30.06,0,0,1-6.15,9.31,29.36,29.36,0,0,1-9.2,6.33,27.5,27.5,0,0,1-11.29,2.36H300.9a9.31,9.31,0,0,1-6.81-2.81,9.48,9.48,0,0,1,0-13.51,9.32,9.32,0,0,1,6.81-2.81h41.92a9.68,9.68,0,0,0,7.11-3,9.83,9.83,0,0,0,3-7.17,10,10,0,0,0-3-7.32,9.68,9.68,0,0,0-7.11-3H322.93a28.81,28.81,0,0,1-11.48-2.29,29.22,29.22,0,0,1-15.61-15.61,29.83,29.83,0,0,1,0-22.95,29.46,29.46,0,0,1,6.27-9.33,30.85,30.85,0,0,1,9.26-6.35,27.5,27.5,0,0,1,11.4-2.37h19.43A9.32,9.32,0,0,1,349,627a9.46,9.46,0,0,1,0,13.51,9.37,9.37,0,0,1-6.83,2.81H322.66a10.14,10.14,0,0,0-7.06,3.11,10.5,10.5,0,0,0,0,14.52,9.56,9.56,0,0,0,7.19,3h19.89a28.09,28.09,0,0,1,11.48,2.37,30.65,30.65,0,0,1,9.33,6.33,29.39,29.39,0,0,1,6.27,9.31A28.68,28.68,0,0,1,372,693.42Z" transform="translate(-274.26 -192.14)" style="fill: #fff"/>
      <path d="M422.23,625.11A49.39,49.39,0,0,1,475.85,655a49.44,49.44,0,0,1,1.07,34.12,50.61,50.61,0,0,1-7.11,13.69,48.51,48.51,0,0,1-19,15.38A49.06,49.06,0,0,1,427,722.72a48.15,48.15,0,0,1-12.55-2.6,50.53,50.53,0,0,1-21-13.92,46.93,46.93,0,0,1-7.19-10.56,51,51,0,0,1-4.05-11.78,47.59,47.59,0,0,1-1-12.32,52.93,52.93,0,0,1,2.07-12.24,44.91,44.91,0,0,1,5.13-11.4,29.36,29.36,0,0,1,2.6-4h.15a45.66,45.66,0,0,1,13.77-12.39A53,53,0,0,1,422.23,625.11Zm33,65.64a30.68,30.68,0,0,0,5-21.42,29.42,29.42,0,0,0-3.37-9.94,32.44,32.44,0,0,0-8-9.49,28.09,28.09,0,0,0-11-5.51,29.1,29.1,0,0,0-12.24-.76,29.69,29.69,0,0,0-11.63,4.28,30.56,30.56,0,0,0-10.71,11.78A29.62,29.62,0,0,0,400,675.29a28.08,28.08,0,0,0,3.21,11.93q.76,1.38,1.45,2.83a22.36,22.36,0,0,0,1.61,2.83q-1.38-2.3-2.6-4.74A30,30,0,0,0,410,696a33,33,0,0,0,8.57,5.58A28.36,28.36,0,0,0,428.81,704a28.72,28.72,0,0,0,10.4-1.45,30.13,30.13,0,0,0,9-4.59A31.39,31.39,0,0,0,455.28,690.74Z" transform="translate(-274.26 -192.14)" style="fill: #fff"/>
      <path d="M562.37,693.42a28.51,28.51,0,0,1-2.28,11.29,30.08,30.08,0,0,1-6.15,9.31,29.36,29.36,0,0,1-9.2,6.33,27.5,27.5,0,0,1-11.29,2.36H491.23a9.32,9.32,0,0,1-6.81-2.81,9.48,9.48,0,0,1,0-13.51,9.32,9.32,0,0,1,6.81-2.81h41.92a9.68,9.68,0,0,0,7.11-3,9.82,9.82,0,0,0,3-7.17,10,10,0,0,0-3-7.32,9.68,9.68,0,0,0-7.11-3H513.26a28.81,28.81,0,0,1-11.48-2.29,29.22,29.22,0,0,1-15.6-15.61,29.83,29.83,0,0,1,0-22.95,29.48,29.48,0,0,1,6.27-9.33,30.87,30.87,0,0,1,9.26-6.35,27.5,27.5,0,0,1,11.4-2.37h19.43a9.32,9.32,0,0,1,6.81,2.81,9.46,9.46,0,0,1,0,13.51,9.37,9.37,0,0,1-6.83,2.81H513a10.14,10.14,0,0,0-7.06,3.11,10.5,10.5,0,0,0,0,14.52,9.56,9.56,0,0,0,7.19,3H533a28.09,28.09,0,0,1,11.48,2.37,30.63,30.63,0,0,1,9.33,6.33,29.37,29.37,0,0,1,6.27,9.31A28.67,28.67,0,0,1,562.37,693.42Z" transform="translate(-274.26 -192.14)" style="fill: #fff"/>
      <path d="M588.46,624.34a9.27,9.27,0,0,1,6.79,2.75,9.13,9.13,0,0,1,2.78,6.73v56.61l12.21-12.24a23.39,23.39,0,0,1,8.24-5.58,26.24,26.24,0,0,1,9.92-1.91,24.7,24.7,0,0,1,18.16,7.5l12.36,12.39V633.83a9.29,9.29,0,0,1,2.68-6.73,8.9,8.9,0,0,1,6.66-2.75,9.4,9.4,0,0,1,9.49,9.49v79.41a9.4,9.4,0,0,1-9.49,9.49,9.77,9.77,0,0,1-5.46-1.86c-.29-.19-.58-.37-.86-.58a15.26,15.26,0,0,1-1.69-1.6l-.26-.26-.28-.28-.3-.3-.32-.32-.34-.34-.35-.35-.37-.37-.38-.38-.4-.4-.41-.41-.42-.43-.43-.44-.45-.45-.46-.46-.47-.47-.48-.48-.48-.49-.49-.49-.5-.5-.51-.51-.51-.51-.52-.52-.52-.52-.52-.53-.53-.53-.53-.53-.53-.53-.53-.53-.53-.53-.53-.53-.53-.53-.53-.53-.52-.53-.52-.52-.51-.52-.51-.51-.5-.51-.5-.5-.49-.49-.48-.48-.47-.48-.46-.47-.45-.46-.44-.45-.43-.43-.42-.42-.41-.41-.39-.39-.38-.38-.36-.36-.35-.35-.33-.33-.31-.31-.29-.3-.28-.28-.26-.26-.24-.24-.22-.22-.19-.2-.17-.17-.15-.15-.12-.13-.1-.1-.08-.08,0,0,0,0a9,9,0,0,0-6.12-2.45,8.55,8.55,0,0,0-6.27,2.6l-.74.74-2,2-3,3-3.65,3.65-4,4-4.06,4.06-3.8,3.8c-.1,0-.4.4-.48.48l-.51.51-1,1c-1,1-2,2-3,3.08a11.2,11.2,0,0,1-3.13,2.48,10.16,10.16,0,0,1-1.39.55,9.7,9.7,0,0,1-2.86.43,9.4,9.4,0,0,1-9.49-9.49V633.83a9.13,9.13,0,0,1,2.78-6.73A9.27,9.27,0,0,1,588.46,624.34Z" transform="translate(-274.26 -192.14)" style="fill: #fff"/>
      <path d="M760.51,706.58a9.42,9.42,0,0,1,2.75,6.81,9.4,9.4,0,0,1-9.49,9.49H742.45a47.16,47.16,0,0,1-19-3.9,50.73,50.73,0,0,1-15.65-10.56,50.19,50.19,0,0,1-10.63-15.61,48.47,48.47,0,0,1,0-38.25A50.2,50.2,0,0,1,707.75,639a50.73,50.73,0,0,1,15.65-10.56,47.14,47.14,0,0,1,19-3.9h11.32a9.4,9.4,0,0,1,9.49,9.49,9.41,9.41,0,0,1-2.75,6.81,9,9,0,0,1-6.73,2.83H742.45a28.93,28.93,0,0,0-11.7,2.37,31.59,31.59,0,0,0-9.56,6.43,29.71,29.71,0,0,0-6.5,9.56,29.08,29.08,0,0,0-2.37,11.63A29.78,29.78,0,0,0,721.19,695a31.48,31.48,0,0,0,9.56,6.43,28.88,28.88,0,0,0,11.7,2.37h11.32A9,9,0,0,1,760.51,706.58Z" transform="translate(-274.26 -192.14)" style="fill: #fff"/>
    </g>
    <g>
      <polygon points="52.74 410.19 80.74 432.67 80.74 456.19 90.99 476.86 125.73 432.67 164.07 422.86 196.3 443.52 209.45 436.86 241.74 422.86 265.44 426.19 273.56 440.19 269.51 458.86 278.73 471.52 293.65 472.19 297.58 443.52 299.12 426.86 313.49 420.19 328.96 432.98 332.91 458.86 332.91 472.19 354.06 472.19 373.74 472.86 373.74 432.83 399.23 424.19 418.93 445.86 473.74 425.19 480.41 421.27 480.41 410.19 52.74 410.19"/>
      <ellipse cx="157.24" cy="482.94" rx="17.17" ry="19.58"/>
    </g>
  </g>
  <g>
    <polygon points="290.62 278.19 303.6 253.19 299.12 228.88 281.07 236.86 253.99 242.16 230.57 239.26 212.07 231.19 202.41 228.88 207.74 253.54 209.45 269.34 215.54 282.11 234.07 294.69 265.44 297.19 290.62 278.19" style="fill: #ffe6c9"/>
    <path d="M523.21,315.82s15-6.74,18.46-9.07l20-15.08,9.68,2.49s10.41,8.61,17.33,7.44h0l6.17-2.09-2-4.5-12.92-9.42-10-7.67-1.5-10.83-11.5,9.17-19.17,14.08-14.92,10.59-9,4-13,6.95,9.44,2.26,7.67,3.32,5.29-1.63" transform="translate(-274.26 -192.14)" style="fill: #d7b482"/>
    <path d="M492,430.7s.72,4.93.59,19.05c0,0,37,51,70.66-2.38,0,0,1.34-19.87,2.22-21.5L539.63,436l-30.75-1.12-16-8.62L492,430.7" transform="translate(-274.26 -192.14)" style="fill: #d7b482"/>
    <polygon points="248.49 250.61 191.67 213.19 178.07 178.7 178.07 148.01 178.07 119.39 235.07 116.16 278.41 86.19 294.74 74.61 307.43 93.19 319.14 108.19 324.74 125.31 328.19 140.2 332.57 179.86 325.07 206.19 271.15 247.59 248.49 250.61" style="fill: #ffe6c9"/>
    <path d="M455.67,359.83c-.11-7.53,3.4-16.57,6.86-23,3-5.57,7.16-10.66,12.81-13.67a25.6,25.6,0,0,1,10-2.88c5.17-.42,10.2,1.16,15.41.94,11.62-.51,23-6.36,33.37-11.24,5.2-2.45,10.55-4.84,15.52-7.71,6.14-3.55,12.18-8.7,19.69-7.67,7.15,1,12.85,6.35,17.07,11.83C603,328,613.59,317.45,613.59,317.45l-5.42-50.37L568,252.77l-90.74,14L455,312.28Z" transform="translate(-274.26 -192.14)" style="fill: #ddb58e"/>
    <polyline points="159.07 107.19 174.55 117.6 220.06 117.01 248.57 108.77 269.51 93.76 286.41 80.52 295.62 63.86 302.07 45.52 309.24 24.83 299.12 16.52 275.07 7.52 253 5.52 224.42 6.86 194.07 19.86 164.07 46.52 152.41 67.96 150.41 90.52 151.39 110.69 159.07 107.19" style="fill: #ff25c9"/>
    <path d="M479.67,296.42s41.35,1.87,70.49-29.33c0,0,32.1-27.28,14.39-49.76,0,0-25.42-30.07-94-3.94L455.48,220l-18.89,24.5L426,266.75l-2.48,27.92,3.81,8.17,9.83-4.59,20.2-6.75,13.19-4.1,22.9-10.06,11.38-5.67L516,264.5l6.56-3.5s1.87,17-13.51,26.68L503.72,291l-13.39,4Z" transform="translate(-274.26 -192.14)" style="fill: #811064"/>
    <polygon points="385.12 265.52 373.74 247.69 394.17 221.86 382.41 213.19 358.61 198.19 353.41 193.19 363.84 185.36 361.84 166.11 353.41 144.76 351.74 132.1 358.61 133.22 360.41 93.19 357.36 58.18 341.74 37.19 316.34 25.52 307.43 23.35 294.74 74.61 311.6 100.12 320.57 102.19 321.84 120.09 330.42 134.56 328.19 189.19 310.74 232.9 305.24 261.52 328.96 277.19 385.12 265.52" style="fill: #ff1ab4"/>
    <path d="M597.5,459.48s27.84-.44,32-3.13c0,0-23.07-2.23-28-22.29h0s18.85,4.77,31.32-6.4c-.33.29-2.57-.67-2.9-.79a21.27,21.27,0,0,1-6.49-3.87,25.82,25.82,0,0,1-6.38-8.39,34.13,34.13,0,0,1-2.9-10,57.17,57.17,0,0,1-.38-10.87,104.4,104.4,0,0,1,1.2-10.86c.66-4.18,1.26-7,2.05-11.2l7.87-2.39s-12.78-37.27-9.76-61l6.57,3.23a25.42,25.42,0,0,1,.34-3.17c.26-2.86.41-5.73.49-8.6a131,131,0,0,0-2-27.16c-2-10.56-5.48-21-11.61-29.92a51.35,51.35,0,0,0-10.31-11.11,48.37,48.37,0,0,0-6.55-4.37c-.83-.46-2.79-1.86-3.41-1.28-.46.43-.59,2.59-.73,3.27-.73,3.58-1.41,7.16-2.05,10.76q-.86,4.78-1.65,9.58c-.31,1.89-.55,3.8-.83,5.7-.33,2.15-.87,4.27-1.14,6.43a25.57,25.57,0,0,0,0,6.73,21.06,21.06,0,0,0,3.66,9.42c2.68,3.74,10.83,9.72,11.07,9.8l3.34-5.75s-11.94,25.66,2.64,41.71l1,13.32-1.55,29.22-3.33,26.25L591,422l-10.37,13.88,4.13,17.79,6.88,11.08,5.87-5.27" transform="translate(-274.26 -192.14)" style="fill: #7c0e66"/>
    <path d="M409,464.75l36,4.58,27.75-11.46v-32L457.37,399l-4.48-30.5,1.93-27.18.66-27.37L445,306.5l-13.87-6.12.13,18.88-3,13.75-4.73,22.57-6,12.3,12,6.63-2.62,7.38s-32.62,33.75-40.87,32.5l26,26-8.83,14.48,1.08,6.8Z" transform="translate(-274.26 -192.14)" style="fill: #fe18b9"/>
    <path d="M460.7,459.41s-27.2,1-32.7-3.05c0,0,24.49-4.16,29.37-24.88,0,0-6.09,10.66-32.7-3.22,0,0,27.51-2.34,11.92-67.79,0,0,3.23,1,5.42,1.58,0,0,5.33-44.58-.8-55.65l14.27,2.31V332l-3.14,44.34,10,25.33,14.34,14.52,1.65,24.16-7.31,17-8.67,2.14-1.63-.12" transform="translate(-274.26 -192.14)" style="fill: #880f67"/>
    <polygon points="126.07 304.47 114.24 294.69 124.36 274.73 133.78 269.34 167.07 275.19 189.91 269.34 200.67 264.21 219.46 286.86 248.07 297.19 265.44 297.19 293.65 278.19 303.6 262.69 321.74 272.42 350.74 275.52 370.87 274.74 385.39 281.98 394.17 299.19 374.53 302.86 328.19 310.47 286.41 341.52 253 354.52 212.07 347.23 188.07 327.36 166.41 305.79 149.26 300.86 126.07 304.47" style="fill: #452747"/>
    <path d="M419,487.08s30.87-10.88,44-6.92c.32.1.9,1.25,1.09,1.51,1,1.38,2.13,2.73,3.25,4a104.05,104.05,0,0,0,12.51,12.38,87.71,87.71,0,0,0,19.75,12.6,67.57,67.57,0,0,0,26.07,6.2c12.51.34,24.93-3.5,35.79-9.53A73.64,73.64,0,0,0,584.22,488a72,72,0,0,0,8.28-13.76s16.47,7,24.74,8.92l-57.9,58.17-67.3-6L452.33,518l-15.75-21.38-19.08-5.28,1.5-4.25" transform="translate(-274.26 -192.14)" style="fill: #2b172b"/>
    <path d="M588.7,225.92s43.3,16.3,33,85.6C621.75,311.53,619.9,244.1,588.7,225.92Z" transform="translate(-274.26 -192.14)"/>
    <path d="M615.18,308.3s-2.47,30.55,9.76,61C624.94,369.26,607.67,337.12,615.18,308.3Z" transform="translate(-274.26 -192.14)"/>
  </g>
  <g>
    <path d="M516,560H305.75a14.25,14.25,0,0,0-14.25,14.25V601a6.5,6.5,0,0,0,6.5,6.5H756.25a11.25,11.25,0,0,0,11.25-11.25v-19.5A16.75,16.75,0,0,0,750.75,560Z" transform="translate(-274.26 -192.14)"/>
    <path d="M311.75,560v-9a7.26,7.26,0,0,1,7.26-7.26h24.1a5.39,5.39,0,0,1,5.39,5.39v1.14h3.25s-13.75-65,15.75-58.75l11,.75s7.59-9.06,21.5-2.25c0,0,9.75-9.25,21.5-1.5,0,0,18.33-7.75,28.54-5.75,0,0,14.21,46,63.46,49.5L497.75,518s59,31.51,101-39c0,0,39.25,7.5,49,1.75,0,0,1.58,3.25,1,5.25,0,0,5.21,0,8.21,4,0,0,19.19-9.62,23.25,6.8,0,0,37.75-29.3,25.75,52.95h2.36v-1.44a4.58,4.58,0,0,1,4.58-4.58h25.8a6,6,0,0,1,6,6V560Z" transform="translate(-274.26 -192.14)"/>
    <path d="M607.17,318.5V330l-.34,42H597.5a52.59,52.59,0,0,0,1-7.17s.5-41.58-1-46.33l-6.9-6.32L590,311s-2.61-8.6-.68-13.54c-.08.21-6.5-3.69-6.84-3.93a47.34,47.34,0,0,1-12.83-13.29,35.5,35.5,0,0,1-4.62-9.8c-1-3.75-.48-7.61.44-11.33a72.08,72.08,0,0,1,4.27-11.46c1.65-3.76,3.14-7.59,4.67-11.4l5.67-14.13.54-1.33,1.83.67c-.33,1.51-5.84,26.34-7,31-1.22,5-2.28,10.15-1.89,15.3.45,5.72,3.44,10.11,7.62,13.85,2,1.78,4,3.53,6.1,5.21,1.48,1.2,3.19,2.89,5,3.51,0,0,6.18-7.82,8.81-9.76,0,0-12.49,41,7,27l-4,14.59A11,11,0,0,0,607.17,318.5Z" transform="translate(-274.26 -192.14)"/>
    <path d="M672,456.12c-.07,0-1.33.82-1.52.89a10.59,10.59,0,0,1-2.48.53,26.64,26.64,0,0,1-6.9-.25A36.21,36.21,0,0,1,648.62,453c-3.34-1.89-6.29-4.44-9.78-6.08s-7-2.26-10.51-3.43a41.35,41.35,0,0,1-5.8-2.44q-1.28-.66-2.51-1.4c-.53-.32-2-1.69-2.53-1.69,0,0,28.33,1.83,46.83-21.75,0,0-31.83-6.08-41.5-39.08,0,0,9.17-1.83,10.17-2.83,0,0-11-43.87-11-58.27,0,0,6.5,6.56,9.12,5.94.31-.07.32-5.47.33-5.84q.32-7.49.24-15c-.07-6.74-.38-13.48-1-20.19a151.12,151.12,0,0,0-3.42-21.41,70.77,70.77,0,0,0-7-18.66c-5.3-9.22-14.85-14.38-24.8-17.17a58.6,58.6,0,0,0-13-2.23l-.77-.28,3.27-7.85s51.75.63,51.75,62.63c0,0,1.25,40.75,1,54.25,0,0-4.08.42-6.83-2.17.49-.06,6.46,33,17.58,51.42,0,0-3.17,4.83-11.67,5.83,0,0,11.17,22.83,47.17,22.83l-33.33,32.17S653.62,451.12,672,456.12Z" transform="translate(-274.26 -192.14)"/>
    <g>
      <path d="M504.83,311.53l-.12,0Z" transform="translate(-274.26 -192.14)"/>
      <path d="M504.71,311.56l-.24.07Z" transform="translate(-274.26 -192.14)"/>
      <path d="M565.29,260.11a177.82,177.82,0,0,1-26.91,25.1,128.54,128.54,0,0,1-24.85,14.66A103.19,103.19,0,0,1,492,306.73a79.35,79.35,0,0,1-20.36,1.51c-12-.74-24.31-1.92-35.3-7.12q-1.55-.73-3-1.57c6.78,7.72,16.66,11.9,26.41,15.13l.1-2a3.07,3.07,0,0,0,2.44,1.83,9.43,9.43,0,0,0,3.17-.19,126.5,126.5,0,0,1,19.06-2c6.55-.11,13.17.07,19.65-1.11q.87-.16,1.73-.35c6.06-1.35,11.73-4,17.22-6.85a139.59,139.59,0,0,0,15.83-9.57q4.57-3.22,8.92-6.74a166.26,166.26,0,0,0,15.31-14c.76-.79,1.52-1.58,2.24-2.41l3.67-4.62Z" transform="translate(-274.26 -192.14)"/>
    </g>
    <path d="M585,213.38l-3.27,7.84-1.06-.39c-20.08-25.16-68.32-19.58-68.32-19.58a100.55,100.55,0,0,0-14.94,2.47,95.27,95.27,0,0,0-20.23,7.42,98,98,0,0,0-15.9,10,101.18,101.18,0,0,0-11.74,10.64,114.53,114.53,0,0,0-8.94,10.85c-4.33,5.86-8.12,12.08-10.18,19.08a81.35,81.35,0,0,0-2.95,18.86,83,83,0,0,0,0,8.92l0,.83h-7.31c-.14-2.91,0-5.82.06-8.73A84,84,0,0,1,423.81,260c.53-1.68,1.15-3.33,1.82-5A97.08,97.08,0,0,1,440,231.51a100.92,100.92,0,0,1,9.68-10.36,102.37,102.37,0,0,1,10.19-8.28,104.37,104.37,0,0,1,10.29-6.45,108,108,0,0,1,10-4.84,113.07,113.07,0,0,1,15.62-5.3,130,130,0,0,1,19.79-3.36,124.67,124.67,0,0,1,20.45-.58,92.3,92.3,0,0,1,13.56,1.85,80.6,80.6,0,0,1,11.22,3.28,71.78,71.78,0,0,1,9,4.08,64.07,64.07,0,0,1,6.82,4.25,54.11,54.11,0,0,1,4.75,3.8c1,.87,1.9,1.77,2.78,2.73C584.18,212.42,585,213.25,585,213.38Z" transform="translate(-274.26 -192.14)"/>
    <path d="M383.24,458.28c2.52-1.14,25.87-12.18,23.26-15.53l-3.37-1.25s-18.37-8-29.12-34.12c0,0,32,7.29,49.5-29.87h10.17s-7.17,30-41.67,38.69c0,0,17,23.56,46.33,21.56-.43,0-2,2-2.36,2.34a18.76,18.76,0,0,1-6.16,3.33,72.15,72.15,0,0,0-7.17,2.78c-7,3.34-12.64,8.78-20.16,11.06C396.3,459.13,389.68,458.71,383.24,458.28Z" transform="translate(-274.26 -192.14)"/>
    <path d="M614.67,368c-4.33,6.83-7.83,6.5-7.83,6.5V372H597.5c-.26,5.68-3.75,11.17-6.22,16.1-2.9,5.79-7.24,10.83-11.47,15.74a180.52,180.52,0,0,1-26,24.71c-8.41,6.54-20.57,14.06-31.56,9.59a118.29,118.29,0,0,1-39.61-26.79c-10.85-11.05-21.85-25-24.42-40.55q-.09-.52-.17-1.05c-.24-1.5-.48-3-.58-4.51q0-.2,0-.41s-.5-41.58,1-46.33l6.9-6.32.56-1.13s-2.37-5.41-15.37-1l1.69,15.67a27.27,27.27,0,0,1-3.44-5.08V330l.86,45.5-6.17-1c15.67,33.17,4,60.67,4,60.67,13,.33,16.5-7.33,16.5-7.33,5.33,17.17-7.67,27.33-7.67,27.33,3.5.67,10.83-.83,10.83-.83L466,456l7.14,7.53,3.52-4.2c15.17,38.33,50.67,37.28,50.67,37.28,41.86-.25,52.16-36.94,52.16-36.94l2.83,1.83,3,.33,4.67-7,10.83.33c-14.22-8.91-8.67-27.17-8.67-27.17,5.83,8.33,16.67,6.31,16.67,6.31C596.33,421.78,614.67,368,614.67,368Zm-45.42,90.25c-8.87,27.5-41.91,28.58-41.91,28.58-33-3-41-29-41-29,2.33-3.17,0-31,0-31s22.18,22.42,42.43,22.92c21.75,1.25,41.86-23.87,41.86-23.87C568.88,437.63,569.25,458.25,569.25,458.25Z" transform="translate(-274.26 -192.14)"/>
    <path d="M420.18,290.33h7.31c.14,6.21,4,18.94,4,18.94.54-.42,3.61-3.23,3.61-3.23,1.82,6.71-11,58.27-11,58.27,3.82,2.06,12.43,3,12.43,3l-2.92,10.17H423.5l1.17-2.33s-10.24.42-14.2-3.79c0,0,18.87-48.08,19-55.31,0,0-4.85,3.13-5,3.19S420.18,290.33,420.18,290.33Z" transform="translate(-274.26 -192.14)"/>
    <path d="M512.3,204.33c3.13-.08,6.69,1,9.71,1.64a92.29,92.29,0,0,1,19.86,6.35c6.16,2.87,12.52,6.93,15.72,13.15,4.13,8,.54,17-4,24-9.61,15-24.37,27.67-40,35.94a104,104,0,0,1-13.67,6,105.06,105.06,0,0,1-20.24,5c4.66-.67,9.37-.67,14-1.52a114.12,114.12,0,0,0,32.44-11.11C541,276,555,265.25,563.36,250.45a49.91,49.91,0,0,0,4.86-11.69c1.43-5.39,1.7-11.25-.54-16.47-3-6.87-9.63-11-16.42-13.49C539,204.35,525.22,204,512.3,204.33Z" transform="translate(-274.26 -192.14)"/>
    <path d="M435.15,306c.39-1.35,2.35-2.72,3.36-3.51,6.18-4.83,14.1-7,21.63-8.6,3.5-.76,7-1.5,10.42-2.6a108.23,108.23,0,0,0,10.36-4.07,132,132,0,0,0,20.3-11.2q3.79-2.55,7.4-5.36,1.9-1.48,3.74-3l1.82-1.55A11.55,11.55,0,0,1,516,264.5c-2.86,1.49-5.76,2.91-8.67,4.31-6.42,3.09-12.91,6-19.51,8.74-9,3.68-18.28,6.73-28,8a117.48,117.48,0,0,0-13,2.36A51.28,51.28,0,0,0,434,292.62l-.93.54a14.15,14.15,0,0,0-4.66,4.08c-5.94,8.92-2.11,12.5-2.11,12.5l7,2.54Z" transform="translate(-274.26 -192.14)"/>
    <polygon points="108.95 266.25 129.49 274.11 131.91 265.23 126.36 260.11 108.95 266.25"/>
    <path d="M673.49,488.12l-5.06,6.38-5.18-6.67s-8.87-15.5-21-17.33c0,0-29.94,9.5-51.44-2.67a9.77,9.77,0,0,1-.38.94c-.38.88-.78,1.75-1.19,2.61-.64,1.32-1.31,2.63-2,3.92q-1.36,2.49-2.88,4.89-1.79,2.82-3.78,5.5c-1.49,2-3,3.91-4.71,5.76a72.23,72.23,0,0,1-5.67,5.67,64.62,64.62,0,0,1-6.65,5.24,59.23,59.23,0,0,1-7.68,4.45,55.35,55.35,0,0,1-8.73,3.3,54.35,54.35,0,0,1-9.81,1.82c-3.1.28-6.22.41-9.33.41-1.31,0-2.61,0-3.91-.13-1.67-.11-3.33-.28-5-.52-2-.27-3.9-.64-5.83-1.08-2.19-.51-4.36-1.12-6.49-1.84a68.13,68.13,0,0,1-14.11-6.69,68.37,68.37,0,0,1-7.2-5.22,70.85,70.85,0,0,1-7-6.71,79.09,79.09,0,0,1-6.66-8.39,90.37,90.37,0,0,1-6.07-10.26c-.54-1-1.05-2.1-1.54-3.17,0,0-22.07,11-49.62,2.17a30.39,30.39,0,0,0-20.75,17.35l-2,2-10.64.19s8.5-24.82,20.37-25.82l1.56-10.82S444.25,473.25,466,456l6.75,1.88v4.74a3.17,3.17,0,0,0,.39.91c.38.84.78,1.67,1.2,2.5.64,1.26,1.32,2.51,2,3.74.91,1.58,1.87,3.12,2.88,4.64q1.79,2.67,3.76,5.19c1.47,1.86,3,3.66,4.65,5.38a65.65,65.65,0,0,0,5.58,5.23,57.17,57.17,0,0,0,6.53,4.74,51.57,51.57,0,0,0,7.49,3.88,49.25,49.25,0,0,0,18,3.83,48.44,48.44,0,0,0,14.07-1.73q2.73-.73,5.39-1.7,3.22-1.17,6.33-2.65a66.71,66.71,0,0,0,6.83-3.76,60.12,60.12,0,0,0,6.92-5.06,58.23,58.23,0,0,0,6.59-6.55A57.19,57.19,0,0,0,577.2,473a59,59,0,0,0,4.65-10.08,5.28,5.28,0,0,0,.48-1.4V456l7.67-1.17c.19,0,1.07.86,1.22,1a34.29,34.29,0,0,0,3.72,2.37,48.26,48.26,0,0,0,14.71,5.19c16.05,3,31.3-2.32,46.32-7.28,1-.32,1.93-.65,2.87-1,.4-.16,1.66-1,2-.93l11.12,2s-5,5.51-17.15,7.32C661.5,469.57,671.52,479.89,673.49,488.12Z" transform="translate(-274.26 -192.14)"/>
  </g>
  <g>
    <polygon points="31.41 382.52 31.41 392.86 187.41 396.86 109.41 399.86 407.74 401.01 317.74 396.86 476.74 392.86 476.74 382.52 31.41 382.52" style="fill: #36242f"/>
    <path d="M305.67,593.83v4.67H751v-4.67S350.33,589.33,305.67,593.83Z" transform="translate(-274.26 -192.14)" style="fill: #fa0fa8"/>
    <rect x="47.74" y="362.61" width="16.75" height="5.25" style="fill: #36242f"/>
    <rect x="90.99" y="362.61" width="16.5" height="5.25" style="fill: #36242f"/>
    <rect x="134.74" y="362.61" width="17" height="5.25" style="fill: #36242f"/>
    <rect x="177.49" y="362.61" width="16.75" height="5.25" style="fill: #36242f"/>
    <rect x="220.99" y="362.61" width="16.75" height="5.25" style="fill: #36242f"/>
    <rect x="269.74" y="362.61" width="17" height="5.25" style="fill: #36242f"/>
    <rect x="313.49" y="362.61" width="16.5" height="5.25" style="fill: #36242f"/>
    <rect x="356.74" y="362.61" width="17" height="5.25" style="fill: #36242f"/>
    <rect x="399.99" y="362.61" width="18" height="5.25" style="fill: #36242f"/>
    <rect x="443.24" y="362.61" width="17" height="5.25" style="fill: #36242f"/>
    <path d="M371.4,507c-2.39-2.93-8.51-9.07-10.9,1.29,0,0-2.5,24,1.13,35.25,0,0,5.13.5,5.38,0,0,0,5.13-.87,4.75-13.87,0,0,.21-14.15.53-20A3.93,3.93,0,0,0,371.4,507Z" transform="translate(-274.26 -192.14)" style="fill: #ffd9b6"/>
    <path d="M394.63,500s-5.62-4.25-7.75,0c0,0-10.12,26.57,0,43.72,0,0,4.13-2.1,5-3.22C391.88,540.5,387.38,518,394.63,500Z" transform="translate(-274.26 -192.14)" style="fill: #ffd9b6"/>
    <path d="M413.91,496.81A10.57,10.57,0,0,0,409,497s-12.25,15.5-5.37,42.38c0,0,4.5-1.62,6.38-3.62,0,0,.82-28.77,4.49-37.89A.77.77,0,0,0,413.91,496.81Z" transform="translate(-274.26 -192.14)" style="fill: #ffd9b6"/>
    <path d="M428.13,500s-4-1.5-4.62,3.38c0,0-6.5,29.32-3.87,40.35h9.25s7.25-6.1,9.25-23.35c0,0,3.09,3.69,1.62,14.55a1.54,1.54,0,0,0,.52,1.39,14.34,14.34,0,0,0,5.11,3,1.45,1.45,0,0,0,1.6-.75C449.31,534.1,458.27,513.24,428.13,500Z" transform="translate(-274.26 -192.14)" style="fill: #ffd9b6"/>
    <path d="M616.89,536.22a28.18,28.18,0,0,1-4.15,2.69,1.63,1.63,0,0,1-1.91-.36c-2.58-2.8-9.48-12.66,2.51-28.55,1.49-2,3.95-3.65,5.89-5.11,2.9-2.19,6.93-5.16,10.79-4.79,3,.29,4.32,3.08,4.88,5.72,1.41,6.7,1.68,13.92,2.4,20.74.13,1.25,1.49,17.17.38,17.17H630a2.28,2.28,0,0,1-2-1.15c-1.36-2.38-4.36-7.85-4.75-10.45L619,520.25a25.15,25.15,0,0,0-1.3,13.81A2.18,2.18,0,0,1,616.89,536.22Z" transform="translate(-274.26 -192.14)" style="fill: #ffd9b6"/>
    <path d="M642.33,497.54a.35.35,0,0,1,.22-.54c1.63-.3,6.39-.83,7.32,3,0,0,9.5,21.63,3.38,39.38,0,0-5.12-1.75-6.75-3.37C646.5,536,645.22,502.41,642.33,497.54Z" transform="translate(-274.26 -192.14)" style="fill: #ffd9b6"/>
    <path d="M671,502.7a13.6,13.6,0,0,0-1-2.74,5,5,0,0,0-.5-.8,3.42,3.42,0,0,0-4.06-1,9.41,9.41,0,0,0-2.1,1.08c-.23.15-.75.4-.89.64-.33.58.51,2.5.69,3.19q.47,1.8.88,3.62c.76,3.37,1.36,6.77,1.79,10.19,1,7.84,1.13,16-.79,23.71a10,10,0,0,0,5.25,3.1c1.11.22,2.26-4,2.52-4.72a35.55,35.55,0,0,0,1.7-10,71.1,71.1,0,0,0-1.11-14.92c-.42-2.47-.94-4.92-1.52-7.36C671.55,505.46,671.3,504.05,671,502.7Z" transform="translate(-274.26 -192.14)" style="fill: #ffd9b6"/>
    <path d="M684.28,509.1a6.61,6.61,0,0,0-.15,2.25c.61,6.28,1.26,12.57,1.32,18.88,0,1.6-.14,3.18-.2,4.77,0,0-.25,6.71,5.13,8.73h5.25c.59-.39.46-5,.53-5.84.61-7.38.88-14.77,1-22.17.05-4,0-9.11-3-12.17-2-2.07-5.2-.28-7,1.25A8.52,8.52,0,0,0,684.28,509.1Z" transform="translate(-274.26 -192.14)" style="fill: #ffd9b6"/>
  </g>
  <g>
    <path d="M546,349.5s23.83,14.67,44-3" transform="translate(-274.26 -192.14)" style="fill: #ddb58e"/>
    <path d="M544.89,348.41s26.78,10.09,42.61-2.16a20.06,20.06,0,0,0-4-18.7l-25.74,8Z" transform="translate(-274.26 -192.14)" style="fill: #fff"/>
    <path d="M543.44,350.08a42.87,42.87,0,0,1,7.48-11.35,44.42,44.42,0,0,1,10.76-8.78,61.69,61.69,0,0,1,6.29-3.33,22,22,0,0,1,6.9-1.79,29.57,29.57,0,0,1,3.57-.08c.59,0,1.19.05,1.78.11s1.18.16,1.76.26a21.61,21.61,0,0,1,6.75,2.28l-.06.7c-1.14.47-2.24.73-3.32,1.07s-2.14.57-3.18.9c-.52.15-1,.29-1.55.41l-1.52.43c-1,.24-2,.57-3,.82-2,.6-3.94,1-5.94,1.47a31.81,31.81,0,0,0-5.95,1.75,45.14,45.14,0,0,0-5.61,2.81,46.08,46.08,0,0,0-5.3,3.54,49.64,49.64,0,0,0-9.24,9.12Z" transform="translate(-274.26 -192.14)"/>
    <circle cx="295.12" cy="148.5" r="11.62"/>
    <path d="M563.83,338s10.67-3.33,12.83-2.33c0,0,1,5.14-.67,9.11C576,344.78,578.67,334.08,563.83,338Z" transform="translate(-274.26 -192.14)" style="fill: #fff"/>
    <path d="M512.5,349.5s-23.83,14.67-44-3" transform="translate(-274.26 -192.14)" style="fill: #ddb58e"/>
    <path d="M513.37,348.41s-26.78,10.09-42.61-2.16a20.06,20.06,0,0,1,4-18.7l25.74,8Z" transform="translate(-274.26 -192.14)" style="fill: #fff"/>
    <path d="M514.2,350.42A49.64,49.64,0,0,0,505,341.3a46.08,46.08,0,0,0-5.3-3.54,45.14,45.14,0,0,0-5.61-2.81,31.8,31.8,0,0,0-5.95-1.75c-2-.46-4-.87-5.94-1.47-1-.25-2-.58-3-.82l-1.52-.43c-.51-.12-1-.26-1.55-.41-1-.33-2.1-.55-3.18-.9s-2.18-.6-3.32-1.07l-.06-.7a21.61,21.61,0,0,1,6.75-2.28c.58-.1,1.17-.19,1.76-.26s1.18-.08,1.78-.11a29.57,29.57,0,0,1,3.57.08,22,22,0,0,1,6.9,1.79,61.7,61.7,0,0,1,6.29,3.33,44.42,44.42,0,0,1,10.76,8.78,42.87,42.87,0,0,1,7.48,11.35Z" transform="translate(-274.26 -192.14)"/>
    <circle cx="214.62" cy="148.5" r="11.62"/>
    <path d="M487.17,334.92s8.58-.83,8,6.5C495.17,341.42,494,337,487.17,334.92Z" transform="translate(-274.26 -192.14)" style="fill: #fff"/>
    <path d="M517,390.5s12-11.25,23.5,0C540.5,390.5,528,394,517,390.5Z" transform="translate(-274.26 -192.14)" style="fill: #ddb58e"/>
    <path d="M509,409.46c3.5-.3,6.95-.53,10.38-.77s6.84-.51,10.22-.92,6.75-.84,10.06-1.56a60.74,60.74,0,0,0,9.84-3,26.74,26.74,0,0,1-9.2,5.22c-.84.28-1.69.56-2.54.82s-1.72.41-2.59.62a52.52,52.52,0,0,1-5.23.85,60.63,60.63,0,0,1-10.54.27A49.83,49.83,0,0,1,509,409.46Z" transform="translate(-274.26 -192.14)"/>
    <path d="M540,325.19a48.63,48.63,0,0,1,9.73-10.2c.93-.73,1.84-1.48,2.82-2.15l2.93-2c2-1.23,4.06-2.43,6.19-3.49a66.62,66.62,0,0,1,6.52-2.84,62.48,62.48,0,0,1,6.81-2A51.27,51.27,0,0,1,589,301c-4.51,1.36-8.95,2.5-13.22,4.14-2.16.74-4.26,1.63-6.36,2.49l-3.1,1.41-1.55.7-1.52.78a119,119,0,0,0-11.9,6.72C547.52,319.69,543.76,322.32,540,325.19Z" transform="translate(-274.26 -192.14)"/>
    <path d="M517.45,328.13c-3.88-3-7.81-5.75-11.85-8.32a124.36,124.36,0,0,0-12.43-7l-1.59-.81-1.62-.73-3.24-1.48c-2.2-.9-4.39-1.83-6.65-2.61-4.47-1.72-9.1-2.9-13.82-4.33a53.57,53.57,0,0,1,14.65,1.56,65.28,65.28,0,0,1,7.11,2.12,69.61,69.61,0,0,1,6.81,3c2.22,1.1,4.35,2.36,6.46,3.65l3.06,2.1c1,.7,2,1.49,2.94,2.25A50.82,50.82,0,0,1,517.45,328.13Z" transform="translate(-274.26 -192.14)"/>
    <path d="M470,340.64a25.16,25.16,0,0,1-.22-3.65,23.43,23.43,0,0,1,.32-3.73,17.28,17.28,0,0,1,1.1-3.76,12.21,12.21,0,0,1,2.38-3.52l2.47,3.15a8.61,8.61,0,0,0-2.27,1.91,14.73,14.73,0,0,0-1.77,2.82A24.32,24.32,0,0,0,470,340.64Z" transform="translate(-274.26 -192.14)"/>
    <path d="M588.48,341.25a25.16,25.16,0,0,0,.22-3.65,23.43,23.43,0,0,0-.32-3.73,17.28,17.28,0,0,0-1.1-3.76,12.21,12.21,0,0,0-2.38-3.52l-2.47,3.15a8.61,8.61,0,0,1,2.27,1.91,14.73,14.73,0,0,1,1.77,2.82A24.32,24.32,0,0,1,588.48,341.25Z" transform="translate(-274.26 -192.14)"/>
  </g>
</svg>
